<?xml version="1.0" encoding="utf-8"?>
<!-- Generator: Adobe Illustrator 25.0.1, SVG Export Plug-In . SVG Version: 6.00 Build 0)  -->
<svg version="1.1" id="Layer_1" xmlns="http://www.w3.org/2000/svg" xmlns:xlink="http://www.w3.org/1999/xlink" x="0px" y="0px"
	 viewBox="0 0 148 34" style="enable-background:new 0 0 148 34;" xml:space="preserve">
<style type="text/css">
	.st0{fill:#FFFFFF;fill-opacity:0;}
	.st1{fill:none;stroke:#F6F6F6;stroke-width:2;}
	.st2{fill:none;}
	.st3{fill:#F6F6F6;}
	.st4{opacity:0.8;}
	.st5{fill:none;stroke:#F6F6F6;stroke-width:2;stroke-linecap:round;stroke-linejoin:round;}
	.st6{fill:#F6F6F6;stroke:#F6F6F6;}
	.st7{fill:none;stroke:#F6F6F6;stroke-width:2;stroke-linecap:round;stroke-miterlimit:10;}
	.st8{fill:none;stroke:#F6F6F6;stroke-width:1.8;stroke-linecap:round;stroke-miterlimit:10;}
	.st9{fill:none;stroke:#F6F6F6;stroke-width:2.2;stroke-linecap:round;stroke-miterlimit:10;}
	.st10{fill:none;stroke:#F6F6F6;stroke-width:3;stroke-linecap:round;stroke-miterlimit:10;}
	.st11{fill:none;stroke:#F6F6F6;stroke-width:2.2;stroke-linecap:round;stroke-linejoin:round;}
	.st12{opacity:0.43;}
	.st13{clip-path:url(#SVGID_2_);}
	.st14{opacity:0.41;fill:#949696;enable-background:new    ;}
	.st15{fill:#949696;}
	.st16{opacity:0.65;}
	.st17{fill:#D2AF69;}
	.st18{opacity:0.39;}
	.st19{opacity:0.3;fill:#D2AF69;enable-background:new    ;}
	.st20{opacity:0.66;}
	.st21{clip-path:url(#SVGID_4_);}
	.st22{fill:#FFFFFF;}
	.st23{fill:#231F20;}
	.st24{fill:#D81F29;}
	.st25{fill:#BEBEBE;fill-opacity:0;}
	.st26{fill:#BEBEBE;}
	.st27{opacity:0.3;fill:#FFFFFF;enable-background:new    ;}
</style>
<g>
	<defs>
		<rect id="SVGID_3_" y="0" width="147.9" height="33.9"/>
	</defs>
	<clipPath id="SVGID_2_">
		<use xlink:href="#SVGID_3_"  style="overflow:visible;"/>
	</clipPath>
	<g id="Group_1415" transform="translate(0 0)" class="st13">
		<path id="Path_558" class="st22" d="M42.9,10.2h2.8v7.5c0,0.8,0,1.6,0.1,2.3c0.1,0.5,0.4,1,0.9,1.4c0.5,0.4,1.2,0.6,1.9,0.5
			c0.6,0,1.3-0.1,1.8-0.5c0.4-0.3,0.6-0.7,0.7-1.2c0.1-0.8,0.1-1.6,0.1-2.4v-7.7H54v7.3c0,1.2,0,2.4-0.2,3.5
			c-0.1,0.6-0.4,1.2-0.8,1.7c-0.4,0.5-1,0.9-1.6,1.1c-0.9,0.3-1.8,0.5-2.7,0.4c-1,0.1-2.1-0.1-3-0.5c-0.6-0.3-1.2-0.7-1.6-1.2
			c-0.4-0.4-0.6-1-0.8-1.5c-0.2-1.2-0.3-2.3-0.3-3.5L42.9,10.2z"/>
		<path id="Path_559" class="st22" d="M57,24.1V10.3h2.8v11.4h7v2.3L57,24.1z"/>
		<path id="Path_560" class="st22" d="M77.7,19l2.7,0.9c-0.3,1.3-1,2.5-2.1,3.4c-2.6,1.7-6,1.4-8.2-0.8c-1.2-1.4-1.9-3.3-1.8-5.2
			c-0.1-2,0.5-3.9,1.8-5.4c1.2-1.3,2.9-2,4.7-1.9c1.5-0.1,3,0.5,4.1,1.5c0.7,0.7,1.2,1.6,1.4,2.6l-2.8,0.7c-0.3-1.4-1.5-2.4-2.9-2.3
			c-1,0-1.9,0.4-2.5,1.1c-0.7,1-1.1,2.3-1,3.6c-0.1,1.3,0.2,2.6,0.9,3.8c0.6,0.7,1.5,1.1,2.5,1.1c0.7,0,1.4-0.2,1.9-0.7
			C77.1,20.6,77.5,19.8,77.7,19"/>
		<path id="Path_561" class="st22" d="M91.7,19l2.7,0.9c-0.3,1.3-1,2.5-2.1,3.4c-2.6,1.7-6,1.4-8.2-0.8c-1.2-1.4-1.9-3.3-1.8-5.2
			c-0.1-2,0.5-3.9,1.8-5.4c1.2-1.3,2.9-2,4.7-1.9c1.5-0.1,3,0.5,4.1,1.5c0.7,0.7,1.2,1.6,1.4,2.6l-2.8,0.7c-0.3-1.4-1.5-2.4-2.9-2.3
			c-1,0-1.9,0.4-2.5,1.1c-0.7,1-1.1,2.3-1,3.6c-0.1,1.3,0.2,2.6,0.9,3.8c0.6,0.7,1.5,1.1,2.5,1.1c0.7,0,1.4-0.2,1.9-0.7
			C91.1,20.6,91.5,19.8,91.7,19"/>
		<path id="Path_562" class="st22" d="M96.1,19.5l2.7-0.3c0.1,0.8,0.4,1.5,1,2c0.6,0.5,1.3,0.7,2,0.6c0.7,0.1,1.4-0.1,2-0.6
			c0.4-0.3,0.7-0.8,0.7-1.3c0-0.3-0.1-0.6-0.3-0.8c-0.3-0.3-0.6-0.5-1-0.6c-0.3-0.1-1.1-0.3-2.2-0.6c-1.1-0.2-2.2-0.7-3.2-1.4
			c-0.8-0.7-1.3-1.7-1.3-2.8c0-0.7,0.2-1.4,0.6-2c0.4-0.6,1-1.1,1.7-1.4c0.9-0.3,1.8-0.5,2.7-0.5c1.4-0.1,2.8,0.3,3.9,1.1
			c0.9,0.8,1.4,1.9,1.4,3.1l-2.8,0.1c-0.1-0.6-0.3-1.1-0.8-1.5c-0.5-0.3-1.1-0.5-1.8-0.5c-0.7,0-1.3,0.1-1.9,0.5
			c-0.3,0.2-0.5,0.5-0.4,0.9c0,0.3,0.2,0.6,0.4,0.8c0.8,0.5,1.7,0.8,2.6,0.9c1,0.2,2.1,0.5,3,1c0.6,0.3,1.2,0.8,1.5,1.4
			c0.8,1.4,0.7,3.1-0.1,4.4c-0.4,0.7-1.1,1.2-1.9,1.5c-1,0.4-2,0.5-3,0.5c-1.5,0.1-2.9-0.3-4-1.2C96.8,22.2,96.2,20.9,96.1,19.5"/>
		<path id="Path_563" class="st22" d="M115.2,24.1V10.3h2.8v11.4h7v2.3L115.2,24.1z"/>
		<path id="Path_564" class="st22" d="M131.5,14v2.1h-1.8v4.1c0,0.5,0,1,0.1,1.4c0,0.1,0.1,0.3,0.2,0.3c0.1,0.1,0.3,0.1,0.4,0.1
			c0.4,0,0.7-0.1,1.1-0.3l0.2,2.1c-0.7,0.3-1.4,0.4-2.1,0.4c-0.4,0-0.9-0.1-1.3-0.2c-0.3-0.1-0.6-0.3-0.8-0.6
			c-0.2-0.3-0.3-0.7-0.4-1c-0.1-0.6-0.1-1.2-0.1-1.9v-4.4h-1.2V14h1.2v-2l2.7-1.6V14L131.5,14z"/>
		<path id="Path_565" class="st22" d="M142.6,24.1h-2.5v-1.5c-0.4,0.5-0.9,1-1.5,1.3c-0.5,0.3-1.1,0.4-1.7,0.4c-1.1,0-2.2-0.5-3-1.4
			c-0.9-1.1-1.3-2.5-1.2-3.9c-0.1-1.4,0.3-2.8,1.2-3.9c0.8-0.9,1.9-1.4,3-1.3c1.1,0,2.2,0.5,2.9,1.4v-5h2.7L142.6,24.1z M135.5,18.8
			c-0.1,0.8,0.1,1.6,0.4,2.3c0.4,0.7,1.1,1.1,1.8,1c0.6,0,1.2-0.3,1.6-0.8c0.5-0.7,0.7-1.5,0.6-2.3c0.1-0.9-0.1-1.8-0.6-2.5
			c-0.7-0.9-2-1-2.9-0.3c-0.1,0.1-0.2,0.2-0.3,0.3C135.7,17.2,135.5,18,135.5,18.8"/>
		<rect id="Rectangle_1020" x="145.2" y="21.4" class="st22" width="2.7" height="2.7"/>
		<path id="Path_566" class="st23" d="M18.8,27.8C12.9,27.8,8.1,23,8.1,17c0-5.9,4.8-10.7,10.7-10.7S29.5,11.1,29.5,17c0,0,0,0,0,0
			C29.5,23,24.7,27.8,18.8,27.8 M18.8,1.9C10.4,1.9,3.6,8.7,3.6,17s6.8,15.2,15.2,15.2C27.2,32.2,34,25.4,34,17
			C34,8.7,27.2,1.9,18.8,1.9"/>
		<path id="Path_567" class="st23" d="M18.8,6.3C12.9,6.3,8.1,11.1,8.1,17s4.8,10.7,10.7,10.7S29.5,23,29.5,17c0,0,0,0,0,0
			C29.5,11.1,24.7,6.3,18.8,6.3"/>
		<path id="Path_568" class="st23" d="M18.9,30.6c0,0-0.1-0.1-0.2-0.1c-0.1,0-0.1,0.1-0.1,0.1c0,0.1,0.1,0.1,0.2,0.1
			C18.9,30.7,18.9,30.7,18.9,30.6 M20,29.4c0,0.4,0,0.7,0.1,1.1c0,0.1,0,0.2,0.1,0.1c0.1,0,0.1,0,0.1-0.1c-0.1-0.4-0.1-0.9-0.1-1.3
			c0-0.1-0.1-0.2-0.2-0.1c-0.2,0.2-0.3,0.3-0.5,0.5c0,0,0,0.1,0,0.1c0,0,0.1,0,0.1,0C19.8,29.6,19.9,29.5,20,29.4 M22.4,29.3
			c0-0.2,0-0.5-0.3-0.5c-0.2-0.1-0.4,0-0.5,0.2c0,0.1-0.1,0.2,0,0.2s0.1,0,0.2-0.1c0-0.1,0.2-0.1,0.3-0.1c0,0,0,0,0,0
			c0.1,0.1,0.2,0.2,0.1,0.4c-0.1,0.2-0.2,0.5-0.3,0.7c-0.1,0.2,0,0.3,0.2,0.2c0.2-0.1,0.3-0.1,0.5-0.1c0.1,0,0.1-0.1,0.1-0.1
			c0-0.1-0.1-0.1-0.1-0.1c-0.1,0-0.1,0.1-0.2,0.1c-0.1,0-0.1,0-0.2,0c0,0,0-0.1,0.1-0.1C22.4,29.7,22.3,29.5,22.4,29.3 M22.8,29.8
			c0.2,0.2,0.4,0.2,0.7,0.1c0.1-0.2,0.2-0.5,0-0.7C23.4,29,23.2,28.9,23,29c0,0,0,0,0,0c-0.1,0-0.2,0.1-0.2-0.1s0-0.2,0.2-0.2
			c0.1,0,0.1,0,0.2-0.1s0.1,0,0.1-0.1c0-0.1,0-0.1-0.1-0.1c-0.2,0-0.4,0.1-0.6,0.2c0,0,0,0.1,0,0.1c0,0.2,0.1,0.3,0.1,0.5
			s0.1,0.2,0.2,0c0.1-0.1,0.3-0.1,0.4,0c0.1,0.1,0.1,0.3,0.1,0.4c0,0.1-0.2,0.2-0.3,0.2c0,0,0,0,0,0C22.9,29.8,22.9,29.8,22.8,29.8
			 M15,28.8c0.1,0,0.2,0.1,0.2,0.1c0.1,0,0.1,0,0.2,0.1c0.1,0,0.1,0,0.1,0c0,0,0-0.1,0-0.1c0,0,0,0,0,0c-0.1-0.1-0.2-0.1-0.4-0.1
			c-0.3-0.1-0.3-0.1-0.5,0.2c-0.1,0.2-0.1,0.4-0.2,0.6c-0.2,0.4-0.1,0.6,0.3,0.6c0.1,0,0.3,0.2,0.4,0c0.1-0.2-0.2-0.1-0.3-0.2
			c-0.1,0-0.2,0-0.2-0.1c0-0.2,0.1-0.4,0.4-0.3c0.1,0,0.2,0,0.2,0.1c0,0,0.1,0.1,0.1,0c0,0,0,0,0,0c0-0.1,0.1-0.2,0-0.2
			s-0.2-0.1-0.3-0.1c-0.2,0-0.2-0.1-0.1-0.2C15,28.9,15,28.8,15,28.8 M21.3,29.8c0,0.1,0,0.2,0,0.3c0,0.2-0.2,0.3-0.3,0.3
			c0,0-0.1,0-0.1,0c0,0-0.1-0.1-0.1-0.1s0,0.1,0,0.2c0.1,0.2,0.4,0.2,0.5,0c0.1-0.1,0.1-0.1,0.1-0.2c0.1-0.3,0-0.6,0-0.9
			c0-0.2-0.2-0.3-0.4-0.4c-0.2,0-0.4,0.1-0.5,0.3c-0.1,0.2,0,0.6,0.1,0.7C20.9,30,21.2,30,21.3,29.8 M17.9,30.6c0.1,0,0.3,0,0.4-0.1
			c0.2-0.3,0.3-0.7,0.2-1.1c0-0.1-0.1-0.2-0.3-0.3c-0.1,0-0.3-0.1-0.4-0.1c-0.2,0-0.3,0-0.3,0.2c0,0.4,0,0.8-0.1,1.2
			c0,0.1,0,0.2,0.1,0.2C17.7,30.6,17.8,30.6,17.9,30.6 M16.7,30.3C16.7,30.3,16.7,30.3,16.7,30.3c0,0.2-0.1,0.3,0.1,0.3
			s0.1-0.1,0.1-0.2c0.1-0.3,0.1-0.7,0.1-1c0-0.1,0.1-0.1,0.2-0.1s0.2,0.1,0.2-0.1c0-0.1,0-0.2-0.1-0.2c-0.1,0-0.3,0-0.4,0
			c-0.2,0-0.4,0-0.6-0.1c-0.2-0.1-0.4-0.1-0.5,0.1c-0.1,0.1-0.1,0.2-0.1,0.2c0,0.2,0.1,0.4,0.3,0.5c0.1,0.1,0.2,0.1,0.2,0.3
			c0,0.1-0.1,0.1-0.2,0.1c-0.1,0-0.3,0-0.3-0.1c0,0-0.1-0.1-0.1-0.1c-0.1,0-0.1,0.1,0,0.2c0.1,0.1,0.2,0.2,0.3,0.2
			c0.1,0,0.3,0,0.4-0.1c0.2-0.2,0.2-0.5,0-0.7c0,0-0.1-0.1-0.1-0.1c-0.1,0-0.2-0.2-0.1-0.3c0,0,0,0,0,0c0-0.1,0.1-0.1,0.2-0.1
			c0,0,0,0,0,0c0.1,0.2,0.3,0.1,0.5,0.2c0.2,0,0.2,0.1,0.2,0.2C16.8,29.7,16.7,30,16.7,30.3 M8.1,17c0,5.9,4.8,10.8,10.7,10.8
			c3.4,0.1,6.6-1.5,8.7-4.3c1.5-1.8,2.2-4.1,2.2-6.5c0.1-4.3-2.5-8.2-6.5-9.9c-1.3-0.6-2.8-0.9-4.3-0.9C12.9,6.2,8.1,11,8.1,17
			C8.1,17,8.1,17,8.1,17 M4.1,17c0,0.4,0,0.9,0,1.3c0,0.4,0.1,0.9,0.2,1.3c0.1,0.7,0.3,1.3,0.5,2c0.1,0.5,0.3,1,0.6,1.5
			c0.3,0.6,0.5,1.1,0.9,1.6c0.3,0.4,0.5,0.8,0.8,1.2c0.3,0.4,0.7,0.9,1.1,1.3c0.3,0.3,0.7,0.7,1.1,1c0.3,0.3,0.7,0.6,1.1,0.8
			c0.4,0.3,0.8,0.6,1.2,0.8c0.4,0.2,0.8,0.4,1.2,0.6c0.3,0.2,0.4,0.1,0.6-0.2c0.3-0.5,0.5-1.1,0.7-1.6c0.2-0.4,0.4-0.8,0.6-1.2
			c0.1-0.2,0-0.2-0.1-0.3c-0.2-0.1-0.5-0.2-0.7-0.3c-0.3-0.2-0.6-0.4-1-0.6c-0.3-0.2-0.6-0.4-0.9-0.6c-0.4-0.3-0.8-0.7-1.1-1
			c-0.4-0.4-0.8-0.8-1.1-1.3C9.5,23,9.2,22.5,8.9,22c-0.5-0.9-0.8-1.9-1-2.9c-0.1-0.4-0.1-0.9-0.1-1.3c-0.1-1.4,0.1-2.8,0.5-4.2
			c0.3-0.8,0.6-1.6,1.1-2.4c0.4-0.7,0.9-1.3,1.5-1.9c0.4-0.5,0.9-0.9,1.5-1.3c0.6-0.5,1.3-0.9,2.1-1.2c0.7-0.3,1.4-0.5,2.1-0.7
			C17.1,6,17.9,6,18.6,5.9c0.5,0,1,0,1.5,0.1c0.4,0,0.8,0.1,1.2,0.2c0.7,0.2,1.4,0.4,2,0.7C23.5,7,23.7,7,23.9,7.1
			c0.5,0.3,0.9,0.5,1.4,0.8c0.4,0.2,0.7,0.5,1,0.8c0.5,0.5,0.9,1,1.3,1.5c0.4,0.6,0.8,1.1,1.1,1.7c0.4,0.8,0.7,1.7,0.9,2.6
			c0.1,0.4,0.2,0.8,0.2,1.2c0.1,1,0.1,2-0.1,2.9c-0.1,0.7-0.3,1.4-0.5,2.1c-0.2,0.5-0.4,0.9-0.6,1.3c-0.2,0.5-0.5,0.9-0.8,1.3
			c-0.3,0.4-0.5,0.7-0.8,1c-0.5,0.5-1,0.9-1.5,1.3c-0.6,0.5-1.3,0.8-1.9,1.1c-0.2,0.1-0.3,0.2-0.1,0.4c0,0,0.1,0.1,0.1,0.1
			c0.4,0.7,0.7,1.4,1.1,2.1c0.1,0.2,0.2,0.5,0.4,0.7c0.1,0.1,0.1,0.1,0.2,0c0.5-0.3,1-0.5,1.5-0.8c0.3-0.2,0.6-0.4,0.9-0.6
			c0.3-0.3,0.7-0.5,1-0.8c0.3-0.3,0.6-0.5,0.9-0.8c0.4-0.5,0.9-1,1.3-1.6c0.5-0.7,0.9-1.3,1.3-2.1c0.2-0.4,0.5-0.9,0.6-1.4
			c0.3-0.8,0.5-1.6,0.7-2.4c0.1-0.7,0.2-1.5,0.3-2.2c0.1-0.8,0-1.7-0.1-2.5c-0.1-0.5-0.1-1-0.2-1.5c-0.1-0.6-0.3-1.2-0.5-1.8
			c-0.2-0.5-0.4-1-0.6-1.5c-0.4-0.8-0.8-1.5-1.3-2.1c-0.3-0.5-0.7-1-1.1-1.4c-0.5-0.5-1-1-1.5-1.4C27.6,5,26.8,4.5,26,4
			c-0.8-0.5-1.7-0.9-2.6-1.2c-0.7-0.2-1.4-0.4-2.2-0.5c-0.9-0.1-1.8-0.2-2.7-0.1c-1.2,0-2.4,0.2-3.6,0.5c-0.4,0.1-0.8,0.2-1.1,0.3
			c-0.2,0.1-0.5,0.2-0.7,0.2c-0.4,0.2-0.9,0.4-1.3,0.6c-0.3,0.2-0.7,0.4-1,0.6c-0.5,0.3-1,0.7-1.4,1.1C8.8,6,8.3,6.5,7.9,7
			C7.4,7.5,7,8.1,6.6,8.7c-0.4,0.6-0.7,1.2-1.1,1.8C5.3,11,5,11.5,4.8,12.1c-0.3,0.9-0.5,1.8-0.7,2.7C4,15.6,4,16.3,4.1,17
			 M4.4,12.5c-0.6,0.4-1.1,0.9-1.5,1.5c-0.4,0.5-0.7,1-1,1.5c-0.1,0.1-0.2,0.2-0.3,0.1c0,0,0,0,0,0c0,0,0-0.1,0-0.1
			c0.3-0.6,0.5-1.2,0.8-1.8c0.1-0.3,0.1-0.3-0.2-0.4c-0.4-0.2-0.6-0.7-0.5-1.1c0.1-0.4,0.3-0.7,0.8-0.7c0.3,0,0.6,0.1,0.7,0.4
			c0.1,0.1-0.2,0.6-0.3,0.7c-0.1,0-0.2,0-0.3-0.1c0,0,0-0.1-0.1-0.1c0,0-0.1,0.1,0,0.1c0.1,0.2,0.1,0.3,0.3,0.3
			c0.3,0,0.5-0.1,0.7-0.3c0.3-0.2,0.7-0.4,1-0.6c0.1-0.1,0.2-0.2,0.2-0.3c0.2-0.6,0.5-1.2,0.8-1.8c0.3-0.6,0.6-1.1,1-1.6
			c0.3-0.5,0.7-0.9,1-1.3C8,6.4,8.5,6,9,5.6c0.4-0.4,0.9-0.7,1.3-1c0.3-0.2,0.6-0.4,0.9-0.5c0.5-0.3,1-0.5,1.5-0.8
			c0.7-0.3,1.5-0.6,2.3-0.8c0.8-0.2,1.7-0.4,2.5-0.5c0.5-0.1,1.1-0.1,1.6-0.1c0.9,0,1.7,0.1,2.6,0.3c0.6,0.1,1.2,0.3,1.7,0.4
			c0.6,0.2,1.2,0.5,1.8,0.7c0.3,0.1,0.6,0.3,0.9,0.5c0.2,0.2,0.4,0.1,0.6,0.4c0,0.1,0.3,0.1,0.4,0.2c0.5,0.3,1,0.7,1.5,1.1
			c0.4,0.3,0.8,0.7,1.2,1.1c0.3,0.3,0.6,0.7,0.9,1C31,8,31.2,8.3,31.5,8.7c0.2,0.3,0.4,0.7,0.6,1c0.3,0.6,0.7,1.3,0.9,2
			c0,0.1,0.2,0.2,0.3,0.2c0.4,0.2,0.7,0.5,1.1,0.7c0.2,0.1,0.4,0.1,0.6,0c0.1-0.1,0.2-0.3,0.1-0.4c0,0,0,0-0.1,0
			c-0.1,0.1-0.3,0.4-0.5,0.2c-0.3-0.3-0.3-0.6-0.1-0.8c0.3-0.3,0.9-0.2,1.2,0.1c0,0.1,0.1,0.1,0.1,0.2c0.1,0.3,0.2,0.6,0.1,0.9
			c-0.1,0.3-0.4,0.4-0.6,0.5c-0.1,0.1-0.1,0.1,0,0.2c0.2,0.3,0.3,0.6,0.4,0.9c0.1,0.3,0.3,0.7,0.4,1c0,0.1,0.1,0.1,0,0.2
			c-0.1,0-0.2,0-0.2-0.1c0,0,0,0,0,0c-0.1-0.3-0.3-0.5-0.5-0.8c-0.2-0.3-0.4-0.6-0.7-0.9c-0.3-0.4-0.6-0.7-1-1c0,0,0-0.1-0.1-0.1
			c-0.1-0.1-0.2-0.2-0.3-0.1s0.1,0.2,0.1,0.3c0.1,0.5,0.3,1,0.3,1.6c0,0.1,0.1,0.1,0.2,0.2c0.4,0.1,0.7,0.4,0.9,0.7
			c0.1,0.1,0.2,0.2,0.4,0.2c0.3,0.1,0.6,0.2,0.8,0.4c0.3,0.1,0.5,0.4,0.9,0.3c0.1,0,0.2,0,0.2-0.1s-0.1-0.1-0.2-0.1
			c-0.1,0-0.2-0.2-0.2-0.3c0,0,0,0,0,0c0-0.2,0.1-0.4,0.4-0.4c0.2,0,0.4,0.1,0.5,0.3c0.1,0.3,0.1,0.6-0.2,0.8c-0.1,0.1,0,0.1,0,0.1
			c0.2,0.2,0.2,0.5,0.2,0.7c-0.1,0.2-0.3,0.3-0.5,0.3c-0.3-0.1-0.5-0.3-0.5-0.5c0.1-0.2,0.2-0.3,0.4-0.3c-0.3-0.1-0.6-0.1-0.7,0.2
			c-0.3,0.4-0.8,0.7-1.4,0.8c-0.1,0-0.2,0.1-0.2,0.1c-0.1,0.3-0.3,0.5-0.6,0.6c-0.1,0.1-0.2,0.2-0.2,0.3c0,0.4-0.1,0.8-0.2,1.2
			c-0.1,0.3-0.1,0.7-0.2,1c0.1-0.1,0.3-0.2,0.4-0.4c0.6-0.5,1-1.1,1.4-1.8c0.2-0.3,0.4-0.7,0.5-1c0-0.1,0.1-0.1,0.2-0.1c0,0,0,0,0,0
			c0.1,0,0,0.1,0,0.2c-0.2,0.7-0.5,1.3-0.7,1.9c-0.1,0.1-0.1,0.2,0.1,0.3c0.3,0.1,0.6,0.3,0.6,0.7c0.1,0.4-0.1,0.8-0.4,1
			c-0.3,0.2-0.7,0.2-1-0.1c-0.2-0.2-0.1-0.6,0.1-0.8c0.1-0.1,0.2-0.1,0.3,0c0.1,0,0.1,0.2,0.2,0.1c0.1-0.1,0-0.2-0.1-0.3
			c0,0,0,0,0,0c-0.2-0.1-0.5-0.1-0.7,0.1c-0.3,0.2-0.6,0.5-0.9,0.6c-0.3,0.2-0.5,0.5-0.6,0.8c-0.2,0.6-0.5,1.2-0.8,1.8
			c-0.2,0.3-0.4,0.7-0.6,1c-0.3,0.4-0.5,0.7-0.8,1.1s-0.6,0.7-0.9,1c-0.3,0.3-0.5,0.6-0.8,0.8c-0.4,0.4-0.9,0.7-1.3,1.1
			c-0.3,0.2-0.6,0.5-1,0.7c-0.4,0.2-0.7,0.4-1,0.6c-0.3,0.1-0.5,0.2-0.8,0.3c-0.7,0.3-1.5,0.6-2.2,0.8c-0.4,0.1-0.8,0.1-1.2,0.3
			c-0.6,0.1-1.2,0.2-1.9,0.2c-0.4,0.1-0.7,0.1-1.1,0.1c-0.7,0-1.4-0.1-2.1-0.2c-0.4-0.1-0.8-0.1-1.2-0.2c-0.7-0.2-1.5-0.4-2.2-0.7
			c-0.6-0.3-1.2-0.6-1.8-0.9c-0.6-0.4-1.2-0.8-1.8-1.3c-0.4-0.3-0.8-0.7-1.2-1.1c-0.5-0.5-0.9-1-1.3-1.5c-0.4-0.5-0.7-1-1-1.5
			c-0.2-0.4-0.4-0.7-0.6-1.1C5,23.1,4.8,22.5,4.5,22c-0.1-0.2-0.4-0.3-0.5-0.4c-0.3-0.2-0.6-0.4-0.8-0.6c-0.1-0.1-0.3-0.2-0.5-0.2
			c-0.3,0-0.3,0.1-0.3,0.4c0,0,0,0,0.1,0c0.1-0.1,0.3-0.3,0.5-0.1c0.2,0.3,0.3,0.5,0,0.7c-0.3,0.3-0.8,0.3-1.1,0
			c-0.1-0.1-0.1-0.1-0.1-0.2c-0.2-0.3-0.2-0.7,0-1c0.1-0.2,0.3-0.3,0.6-0.4c0.2-0.1,0.2-0.1,0.1-0.2c-0.2-0.3-0.2-0.7-0.4-1
			s-0.2-0.7-0.4-1c0-0.1-0.1-0.1,0-0.2c0.1,0,0.2,0,0.2,0.1c0.1,0.2,0.3,0.5,0.4,0.7c0.3,0.5,0.6,0.9,0.9,1.3
			c0.2,0.3,0.6,0.6,0.8,0.9C3.9,20.9,4,20.9,4.1,21c0,0.1,0.1,0.1,0.1,0.1c0.1,0,0.1-0.1,0-0.2c-0.1-0.2-0.1-0.3-0.1-0.5
			c-0.1-0.5-0.2-1.1-0.3-1.6c0-0.2-0.2-0.2-0.3-0.3c-0.3-0.1-0.5-0.3-0.6-0.6c-0.1-0.1-0.1-0.1-0.2-0.1c-0.6-0.1-1.1-0.4-1.4-0.8
			c-0.2-0.2-0.5-0.3-0.7-0.2C0.9,16.9,1.1,17,1,17.3c-0.1,0.3-0.4,0.5-0.8,0.3C0,17.4,0,17.1,0.1,16.9c0,0,0-0.1,0.1-0.1
			c0.1-0.1,0.2-0.2,0.1-0.4c0,0,0-0.1-0.1-0.1C0,16.2,0,15.9,0.1,15.7c0.1-0.2,0.3-0.3,0.6-0.3c0.2,0,0.3,0.2,0.3,0.4
			c0,0.2,0,0.3-0.2,0.4c0,0-0.1,0-0.1,0.1c0,0,0,0,0,0c0,0.1,0,0.1,0.1,0.1c0.2,0.1,0.4,0,0.5-0.1c0.3-0.2,0.6-0.4,0.9-0.5
			c0.3-0.1,0.6-0.3,0.8-0.6c0.2-0.2,0.4-0.4,0.7-0.5C4,14.6,4,14.4,4,14.3C4.1,13.7,4.2,13.1,4.4,12.5"/>
		<path id="Path_569" class="st24" d="M24.6,28.2c0-0.1,0.3-0.1,0.3-0.3c0-0.1-0.1-0.2-0.2-0.2c0,0,0,0,0,0c-0.1,0-0.3,0-0.2,0.2
			C24.5,28,24.5,28.1,24.6,28.2 M25.9,6.2c0,0.1-0.2,0.2-0.1,0.3c0.1,0.1,0.3,0.2,0.4,0.3c0.1,0,0.1-0.1,0.2-0.1
			c0.1-0.1,0-0.1,0-0.1C26.3,6.3,26.1,6.3,25.9,6.2 M30.3,21.5c-0.1,0-0.2,0-0.3,0.1c0,0,0,0,0,0c0,0.1,0,0.1,0.1,0.2
			c0.4,0.2,0.9,0.3,1.3,0.5c0,0,0.1,0.1,0.2,0c0.2-0.3,0.2-0.3-0.1-0.4c-0.1,0-0.1,0-0.2-0.1C31,21.8,30.6,21.7,30.3,21.5 M30.7,14
			c0.5-0.1,1-0.2,1.5-0.4c0.2-0.1,0.1-0.2,0.1-0.3c0-0.1-0.1-0.1-0.2-0.1c-0.4,0.1-0.8,0.3-1.2,0.3c-0.1,0-0.1,0.1-0.2,0.1
			c-0.1,0.1-0.1,0.1,0,0.2S30.6,14.1,30.7,14 M5.3,14.6c-0.1,0-0.2,0-0.3,0.2c0,0.2,0.1,0.2,0.2,0.2c0.5,0,0.9,0.1,1.4,0.2
			c0.1,0,0.2,0,0.2-0.1c0-0.2,0.1-0.4,0.1-0.7c0-0.1,0-0.1-0.1-0.1c-0.1,0-0.2-0.1-0.2,0c0,0.1,0,0.1,0,0.2c0,0.2-0.1,0.2-0.2,0.2
			C6,14.7,5.7,14.7,5.3,14.6 M6,22.3C6,22.3,6.1,22.3,6,22.3c0.6-0.2,1-0.4,1.5-0.6c0.1,0,0.1-0.1,0.1-0.1c0,0,0,0,0-0.1
			c-0.1-0.2-0.2-0.4-0.2-0.6c0-0.1-0.1-0.1-0.2-0.1c-0.2,0-0.3,0.2-0.1,0.4s0,0.2-0.1,0.3c-0.3,0.1-0.6,0.2-1,0.4
			c-0.1,0-0.2,0.1-0.1,0.1S5.9,22.3,6,22.3 M7.4,12.9c0-0.2,0-0.2-0.1-0.2c-0.1,0-0.2,0-0.2,0.1C7,13.1,6.8,13.1,6.6,13
			c-0.2-0.1-0.5-0.2-0.8-0.3c-0.1,0-0.2,0-0.2,0.1c0,0,0,0,0,0c0,0.1,0,0.1,0.1,0.2c0.3,0.2,0.7,0.2,1,0.4c0.1,0.1,0.3,0.1,0.4,0.1
			c0.1,0,0.1,0,0.2-0.1C7.3,13.3,7.4,13.1,7.4,12.9 M27,26.5c0.1-0.1,0.2-0.1,0.3-0.2c0.1-0.1,0.2-0.1,0.2,0
			c0.2,0.3,0.5,0.5,0.7,0.8c0.2,0.2,0.2,0,0.3-0.1c0.1-0.1,0-0.1,0-0.2c-0.1-0.2-0.2-0.2-0.3-0.3c-0.2-0.3-0.5-0.5-0.7-0.8
			c0,0-0.1-0.1-0.1,0c0,0,0,0,0,0c-0.1,0.2-0.3,0.3-0.5,0.5c0,0-0.1,0.1,0,0.2C26.9,26.4,27,26.4,27,26.5 M30.8,24.1
			c0-0.1-0.1-0.1-0.2-0.1c-0.1,0-0.1,0-0.2,0c0,0,0,0,0,0.1c0,0.1-0.1,0.1-0.2,0.1c-0.2-0.1-0.3-0.2-0.5-0.3
			c-0.2-0.1-0.3-0.2-0.5-0.3c-0.1-0.1-0.2,0-0.2,0.1c0,0.1-0.1,0.2,0,0.2c0.3,0.2,0.6,0.4,0.9,0.6c0.1,0.1,0.2,0.1,0,0.2
			c-0.1,0.1-0.1,0.2,0,0.2s0.2,0.2,0.3,0c0.1-0.2,0.3-0.4,0.3-0.6C30.7,24.2,30.8,24.2,30.8,24.1 M27.1,28.2
			C27.2,28.2,27.2,28.2,27.1,28.2c0.3-0.2,0.5-0.4,0.7-0.5c0.2-0.1,0-0.2,0-0.3c-0.1-0.1-0.2,0-0.2,0s-0.1,0.1-0.2,0
			c-0.3-0.3-0.5-0.6-0.7-0.9c-0.2-0.2-0.2,0-0.3,0c-0.1,0.1-0.1,0.2,0,0.3c0.2,0.2,0.4,0.5,0.6,0.7c0.1,0.1,0.2,0.2,0,0.3
			C26.9,27.9,27,28.2,27.1,28.2 M13,27.7c0-0.1-0.2-0.1-0.2-0.2c0,0-0.1,0-0.1,0.1c-0.2,0.3-0.3,0.6-0.5,0.9
			c-0.1,0.2-0.1,0.3-0.4,0.2c-0.1-0.1-0.2,0.1-0.2,0.1c-0.1,0,0,0.1,0,0.1c0.3,0.1,0.5,0.3,0.8,0.5c0.1,0.1,0.2,0.1,0.2-0.1
			c0-0.1,0.1-0.2,0-0.3c-0.2-0.1-0.1-0.2-0.1-0.3c0.2-0.3,0.3-0.5,0.5-0.8C12.9,27.9,13,27.8,13,27.7 M21.5,5.1
			c0.3,0.1,0.4,0.1,0.4,0c0.1-0.3,0.2-0.7,0.2-1c0-0.1,0.1-0.2,0.2-0.2c0.1,0,0.2,0,0.2-0.1c0-0.1,0-0.2-0.1-0.2c0,0,0,0,0,0
			c-0.2-0.1-0.5-0.1-0.7-0.1c-0.1,0-0.2,0-0.2,0.1c0,0,0,0,0,0c0,0.1,0,0.2,0.2,0.2c0.2,0,0.2,0.2,0.1,0.3c-0.1,0.3-0.2,0.6-0.2,0.9
			C21.6,5,21.5,5.1,21.5,5.1 M32.1,12.9c0-0.2-0.2-0.5-0.2-0.7c0-0.1-0.1-0.2-0.2-0.1c-0.1,0-0.2,0.1-0.1,0.2c0.1,0.2,0,0.2-0.2,0.3
			c-0.3,0.1-0.6,0.2-0.9,0.3c-0.1,0-0.3,0-0.2,0.2c0.1,0.1,0.1,0.4,0.3,0.3s0.6-0.2,0.8-0.3c0.2-0.1,0.3,0,0.4,0.1
			c0,0,0,0.2,0.1,0.1C32,13,32.1,13.1,32.1,12.9 M16.6,3.3c-0.2,0-0.5,0.1-0.8,0.2c-0.1,0-0.2,0-0.1,0.2s0.1,0.2,0.2,0.2
			c0.2-0.1,0.2,0,0.2,0.2c0,0.3,0.1,0.7,0.1,1c0,0.2,0.1,0.1,0.2,0.1s0.2,0,0.2-0.1c0-0.4-0.1-0.7-0.1-1.1c-0.1-0.2,0-0.2,0.1-0.3
			c0.1,0,0.2-0.1,0.2-0.2C16.8,3.3,16.8,3.3,16.6,3.3 M30.1,25.1c-0.2-0.1-0.5-0.2-0.7-0.2c-0.2-0.1-0.5-0.2-0.6-0.4
			c-0.1-0.1-0.1-0.1-0.2-0.1c-0.1,0-0.2,0.1-0.2,0.2s0.1,0.1,0.1,0.2c0.3,0.2,0.5,0.4,0.6,0.6c0.1,0.2,0.2,0.3,0.2,0.4
			c0,0,0.1,0.1,0.2,0.1c0.1-0.1,0.4-0.2,0.1-0.4c-0.1,0-0.1-0.1-0.1-0.2C29.7,25.4,30,25.6,30.1,25.1 M6.5,15.5
			c-0.4,0-0.9,0.1-1.3,0.1C5,15.7,5,15.7,5,15.9s0,0.3,0.2,0.4c0.4,0.1,0.8,0.3,1.3,0.4c0.1,0,0.2,0.2,0.2,0c0-0.1,0.1-0.3-0.1-0.4
			c-0.1,0-0.1-0.1-0.1-0.2c0-0.1,0.1-0.2,0.2-0.2c0.2,0,0.2-0.1,0.2-0.2C6.7,15.5,6.6,15.5,6.5,15.5 M23.1,5.3
			c0,0.2,0.1,0.5,0.3,0.5C23.7,6,24,5.9,24.1,5.8c0.1-0.1,0.2-0.2,0.1-0.4c-0.1-0.1-0.2-0.1-0.3,0c0,0,0,0.1-0.1,0.1
			c0,0.1-0.1,0.1-0.2,0.1c-0.1,0-0.1-0.1-0.1-0.2c0-0.3,0.2-0.4,0.2-0.7c0-0.1,0.1-0.3,0.3-0.3s0.1,0.2,0.1,0.3
			c0,0.1,0.1,0.1,0.2,0.2c0.1,0,0.1,0,0.2-0.1c0.1-0.2,0-0.5-0.2-0.6c-0.2-0.2-0.7-0.2-0.8,0C23.4,4.6,23.2,4.9,23.1,5.3 M30.9,23.7
			c0.1,0,0.1,0,0.2-0.1c0,0,0,0,0,0c0.1-0.2,0.1-0.3,0.3-0.5c0.1-0.1,0.1-0.3-0.1-0.3c-0.4-0.1-0.8-0.5-1.2-0.6
			c-0.2-0.1-0.2,0-0.3,0.1c-0.1,0.1-0.1,0.3-0.2,0.4c-0.1,0.2-0.1,0.3,0.1,0.3c0.1,0,0.2-0.1,0.2-0.2c0-0.1,0-0.1,0.1-0.1
			c0.1,0,0.2,0.1,0.3,0.1c0,0.1,0,0.1-0.1,0.2c-0.1,0.1-0.1,0.2-0.1,0.3c0,0.1,0.1,0.1,0.2,0.1c0.1-0.1,0.2-0.2,0.2-0.3
			c0-0.1,0.1-0.1,0.2-0.1c0.1,0,0.1,0.1,0.1,0.2c0,0.1,0,0.1-0.1,0.2c-0.1,0.1-0.1,0.1-0.1,0.2S30.8,23.7,30.9,23.7 M10,27
			c0,0.1-0.1,0.1-0.1,0.1c-0.2,0.1-0.2-0.1-0.3-0.2s-0.1-0.2-0.2,0c-0.1,0.1-0.1,0.2,0,0.3c0.2,0.1,0.3,0.2,0.4,0.4
			c0,0.1,0.1,0.1,0.1,0c0.1-0.1,0.2-0.1,0.3-0.2c0.2-0.3,0.5-0.6,0.8-0.9c0.1-0.1,0.1-0.1,0-0.2c-0.2-0.2-0.4-0.4-0.6-0.5
			c-0.1,0-0.1,0-0.2,0s-0.1,0.1,0,0.2s0.1,0.1,0.2,0.2c0.1,0.1,0.1,0.2,0,0.3c-0.2,0.1-0.3-0.1-0.4-0.1s-0.1-0.1-0.2,0
			c-0.1,0.2,0,0.2,0.1,0.3C9.9,26.8,10,26.9,10,27 M29,9.2c0.2,0,0.2,0.1,0.2,0.2c0.1,0,0.1,0.2,0.2,0.1c0.1-0.1,0.4-0.2,0.1-0.4
			c0,0-0.1-0.1-0.1-0.1c-0.1-0.1,0-0.2,0.1-0.3c0,0,0,0,0,0c0.1-0.1,0.2,0,0.2,0.1C29.7,9,29.8,9,29.8,9c0.1,0.2,0.2,0.1,0.2,0
			c0.1-0.1,0.1-0.2,0-0.2c0,0,0,0,0,0c-0.2-0.2-0.3-0.3-0.4-0.5c-0.1-0.1-0.1-0.1-0.2,0c-0.4,0.3-0.7,0.6-1.1,0.9
			c-0.1,0.1-0.2,0.1-0.1,0.3c0.2,0.2,0.3,0.4,0.5,0.6c0,0.1,0.1,0,0.1,0c0.2-0.1,0.2-0.2,0-0.4c-0.1-0.1-0.1-0.1-0.1-0.2
			C28.8,9.3,28.9,9.2,29,9.2 M29.2,7.9c0-0.1-0.1-0.2-0.1-0.3c-0.1-0.1-0.2-0.2-0.2-0.3c-0.2-0.2-0.3-0.2-0.5,0
			c-0.3,0.3-0.6,0.6-0.9,0.9c-0.2,0.2-0.1,0.2,0,0.3c0.2,0.1,0.3,0,0.4-0.2c0.1-0.1,0.2-0.2,0.3,0c0.1,0.2,0.4,0.2,0.5,0.1
			C29,8.3,29.1,8.1,29.2,7.9 M7.7,11.8c0.2,0,0.2-0.1,0.2-0.2c0-0.1,0.1-0.1-0.1-0.2c-0.5-0.2-0.9-0.2-1.4-0.3
			c-0.1,0-0.2-0.1-0.2,0.1c0,0.1-0.2,0.3,0,0.4c0.4,0.3,0.8,0.6,1.2,0.9c0.1,0.1,0.2,0,0.2,0c0-0.1,0.1-0.2,0-0.3
			c-0.1-0.1-0.2-0.2-0.1-0.3C7.5,11.7,7.6,11.8,7.7,11.8 M30.3,20.9c0,0.3,0.2,0.5,0.4,0.6c0,0,0.1,0,0.1,0c0-0.1,0.2-0.3-0.1-0.4
			c-0.1,0-0.2-0.1-0.1-0.2c0,0,0,0,0,0c0-0.1,0.1-0.1,0.2-0.1c0.3,0.1,0.5,0.2,0.8,0.3c0.1,0,0.1,0.1,0.1,0.2s-0.1,0.1-0.2,0.1
			c-0.1,0-0.1,0-0.2,0c0,0.1-0.1,0.2,0,0.2c0,0.1,0.1,0.1,0.2,0.1c0.3,0,0.5-0.1,0.6-0.3c0.1-0.3,0-0.6-0.3-0.7c0,0,0,0,0,0
			c-0.2-0.1-0.5-0.2-0.8-0.3c-0.3-0.1-0.6,0-0.7,0.3C30.3,20.7,30.3,20.8,30.3,20.9 M13,6.2C13,6.2,13,6.1,13,6.2
			c0-0.2,0-0.4-0.2-0.4c-0.1,0-0.2,0.1-0.3,0.2c0,0.1,0,0.1,0.1,0.2c0,0.1,0,0.1,0,0.2c0,0,0,0,0,0c-0.1,0-0.2,0-0.2-0.1
			c-0.1-0.2-0.2-0.4-0.3-0.6c-0.1-0.1-0.1-0.2,0-0.3c0.1-0.2,0.2,0,0.2,0.1c0.1,0.1,0.2,0,0.4,0c0.1,0,0.1-0.1,0-0.2
			c-0.2-0.3-0.5-0.3-0.8-0.2c-0.2,0.1-0.3,0.4-0.2,0.6c0.1,0.2,0.2,0.4,0.3,0.6c0.1,0.3,0.4,0.5,0.7,0.4c0.1,0,0.1-0.1,0.2-0.1
			C12.9,6.5,13.1,6.4,13,6.2 M19.5,4.9c0.2,0,0.2,0,0.2-0.2c0-0.2-0.1-0.4-0.2-0.6c0-0.3-0.1-0.5-0.1-0.8S19.1,3.2,19,3.1
			c-0.1,0-0.2,0.1-0.2,0.2c0,0.5-0.3,0.9-0.3,1.4c0,0.1-0.1,0.2,0.1,0.2c0.1,0,0.3,0.1,0.3-0.2c0-0.1,0-0.2,0.2-0.2
			c0.1,0,0.2,0.1,0.2,0.2C19.3,4.8,19.3,4.9,19.5,4.9 M8.1,22.8c0-0.1-0.1-0.2-0.2-0.2c-0.1,0-0.1,0-0.2,0c-0.1,0-0.1,0-0.2-0.1
			c-0.1-0.1-0.1-0.3,0.1-0.3c0.2-0.1,0.1-0.2,0-0.3c-0.1-0.1-0.1-0.2-0.3-0.1c-0.4,0.3-0.7,0.7-1.2,0.9c-0.1,0-0.1,0.1,0,0.2
			c0,0,0,0,0,0c0.1,0.1,0.1,0.2,0.1,0.2c0,0.1,0.1,0.1,0.2,0c0.1,0,0.1-0.1,0.2-0.1C7.2,23.2,7.6,23,8,23C8.1,23,8.1,22.9,8.1,22.8
			 M32.7,16.1L32.7,16.1c0-0.1,0-0.2,0-0.3c0-0.2-0.1-0.3-0.3-0.2c-0.3,0-0.5,0-0.8,0.1c-0.8,0-0.8,0-0.7,0.8c0,0,0,0,0,0
			c0,0.1,0.1,0.2,0.2,0.2c0.2,0,0.2-0.1,0.2-0.3c0-0.1-0.1-0.3,0.2-0.3c0.2,0,0.2,0.1,0.2,0.2s0,0.3,0.2,0.3s0.1-0.2,0.1-0.3
			c0,0,0,0,0-0.1c0-0.2,0.1-0.2,0.2-0.2c0.2,0,0.1,0.1,0.1,0.2c0,0.1,0,0.1,0,0.2c0,0.1,0,0.2,0.2,0.2s0.2-0.1,0.2-0.2
			C32.7,16.2,32.7,16.2,32.7,16.1 M31.7,14.8c0.2-0.2,0.4-0.3,0.7-0.3c0.3-0.1,0.1-0.3,0-0.4c0-0.2-0.1,0-0.2,0
			c-0.4,0.2-0.9,0.4-1.3,0.6c-0.1,0-0.2,0.1-0.1,0.2c0,0.1,0.1,0.3,0.2,0.3c0.5,0,1,0,1.5,0.1c0.1,0,0.1,0,0.1-0.1
			c0-0.2-0.1-0.3-0.3-0.3L31.7,14.8 M20.4,4.3L20.4,4.3c0-0.2,0-0.4,0.1-0.6c0-0.1,0-0.2,0.1-0.2s0.1,0.1,0.1,0.2c0,0,0,0.1,0,0.1
			c0,0.2,0.2,0.1,0.3,0.1c0.1,0,0.1,0,0.1-0.1c0-0.2-0.1-0.5-0.3-0.6c-0.2-0.1-0.6-0.1-0.7,0.1c-0.2,0.4-0.3,0.8-0.2,1.2
			c0,0.2,0.4,0.4,0.6,0.4c0.3,0,0.5-0.2,0.5-0.5c0-0.1,0-0.2-0.1-0.2c-0.1,0-0.2-0.1-0.3,0.1c0,0.1,0,0.3-0.2,0.2
			c-0.2,0-0.1-0.2-0.1-0.3C20.4,4.4,20.4,4.3,20.4,4.3 M30.9,18.1c0,0.2,0.1,0.4,0.3,0.4c0.2,0.1,0.5,0.1,0.6,0
			c0.1-0.1,0.2-0.2,0.3-0.4c0-0.1,0.1-0.1,0.2-0.1c0.1,0,0.1,0.1,0.1,0.1c0,0.1-0.1,0.1-0.1,0.1c-0.2,0.1-0.1,0.2-0.1,0.3
			c0,0.1,0.2,0.1,0.3,0c0.2-0.1,0.4-0.3,0.3-0.5c0-0.2-0.1-0.4-0.3-0.5c-0.2-0.1-0.5,0-0.6,0.2c-0.1,0.1-0.2,0.2-0.3,0.3
			c-0.1,0.1-0.1,0.1-0.2,0c0,0-0.1-0.1-0.1-0.1s0.1-0.1,0.2-0.1c0.3,0,0.2-0.2,0.2-0.3c0-0.2-0.2-0.1-0.3-0.1
			C31,17.5,30.9,17.7,30.9,18.1 M31.2,11c0,0-0.1,0-0.1,0c-0.4,0-0.9,0.2-1.3,0.3c-0.1,0-0.2,0-0.2,0.2c0.1,0.1,0,0.4,0.3,0.2
			c0.1,0,0.1,0,0.2,0c0,0,0,0,0,0c0,0.1,0,0.2,0,0.2c0,0,0,0,0,0c-0.2,0.1-0.1,0.2,0,0.3c0.1,0.2,0.2,0.1,0.3,0
			c0.4-0.3,0.7-0.6,1.1-0.8c0.1-0.1,0.2-0.1,0.1-0.3S31.4,11,31.2,11 M8.9,24.4c-0.1,0-0.1,0-0.2,0.1c-0.3,0.3-0.6,0.5-1,0.8
			c-0.2,0.2,0,0.2,0.1,0.3c0,0.1,0.2,0,0.2,0c0.2-0.2,0.5-0.4,0.8-0.6c0.1-0.1,0.2-0.1,0.3,0C9.2,25,9.1,25.1,9,25.1
			c-0.3,0.2-0.5,0.4-0.8,0.6c-0.1,0.1-0.2,0.2-0.1,0.3c0.1,0.1,0.2,0.1,0.3,0.1c0,0,0,0,0.1-0.1c0.2-0.2,0.5-0.4,0.8-0.6
			c0.2-0.1,0.3-0.4,0.2-0.6C9.4,24.6,9.2,24.4,8.9,24.4 M10.2,8.3c0-0.1-0.1-0.3-0.2-0.4C9.8,7.7,9.6,7.4,9.3,7.2C9.1,7,9.1,7,9,7.2
			C8.9,7.4,9,7.5,9.1,7.5C9.4,7.7,9.6,8,9.8,8.2c0.1,0.1,0.1,0.2,0,0.2c-0.1,0-0.2,0-0.2,0C9.3,8.1,9.1,7.9,8.8,7.7
			c-0.1-0.1-0.2-0.2-0.3,0C8.5,7.7,8.3,7.8,8.5,7.9C8.8,8.2,9,8.4,9.3,8.7c0.2,0.2,0.4,0.2,0.6,0.1C10.1,8.7,10.2,8.5,10.2,8.3
			 M28.1,6.9c0-0.3-0.1-0.5-0.4-0.6c-0.2-0.1-0.5,0-0.6,0.2c-0.1,0.1-0.2,0.2-0.3,0.3c-0.3,0.2-0.4,0.6-0.2,0.9c0,0,0.1,0.1,0.1,0.1
			c0.2,0.2,0.5,0.2,0.7,0c0.1-0.1,0.3-0.2,0.4-0.4C27.8,7.3,28.1,7.1,28.1,6.9 M7.6,9c0,0.1,0,0.2,0.1,0.3c0.2,0.2,0.4,0.4,0.7,0.6
			C8.6,10,8.9,10,9.1,9.7C9.3,9.5,9.3,9.2,9.1,9C8.9,8.8,8.7,8.6,8.5,8.5C8.4,8.4,8.1,8.3,7.9,8.4C7.7,8.5,7.6,8.7,7.6,9 M5.8,17.5
			L5.8,17.5c-0.1,0-0.3,0-0.4,0c-0.1,0-0.2,0-0.2-0.1s0.1-0.1,0.2-0.1c0.2-0.1,0.1-0.2,0.1-0.4s-0.1-0.1-0.2-0.1
			c-0.3,0-0.4,0.2-0.4,0.5S5,17.9,5.3,18c0.3,0,0.6,0,1,0c0.2,0,0.4-0.2,0.4-0.4c0,0,0-0.1,0-0.1c0-0.6,0-0.6-0.6-0.6
			c-0.4,0-0.4,0-0.3,0.4c0,0.1,0,0.2,0.1,0.2c0.1,0,0.2,0,0.2-0.1s0.2-0.1,0.3,0c0.1,0,0.1,0.1,0.1,0.1c0,0.1-0.1,0.1-0.2,0.1
			C6.1,17.6,5.9,17.6,5.8,17.5 M7.2,20.4c0-0.3-0.1-0.5-0.3-0.6c-0.2-0.1-0.3,0-0.4,0c-0.4,0.1-0.7,0.2-1.1,0.3
			c-0.2,0.1-0.1,0.1-0.1,0.2s0.1,0.2,0.2,0.1c0.3-0.1,0.7-0.2,1-0.3c0.1,0,0.1,0,0.2,0c0.1,0,0.1,0,0.2,0.1c0,0.1-0.1,0.1-0.1,0.1
			c-0.2,0.1-0.4,0.2-0.6,0.2c-0.2,0-0.3,0.1-0.5,0.1c-0.2,0-0.2,0.2-0.1,0.3c0,0.2,0.1,0.1,0.2,0.1c0.4-0.1,0.7-0.2,1.1-0.3
			C7,20.8,7.2,20.6,7.2,20.4 M25.1,6.6c0.1,0,0.2,0,0.2-0.1c0.4-0.3,0.6-0.8,0.6-1.2c0-0.3-0.2-0.4-0.4-0.4c-0.2-0.1-0.5,0-0.6,0.2
			c-0.1,0.2-0.2,0.4-0.3,0.6c-0.2,0.2-0.2,0.5-0.1,0.7C24.6,6.5,24.8,6.6,25.1,6.6 M13.7,6c0.4,0,0.8-0.3,0.6-0.7
			c-0.1-0.3-0.2-0.7-0.5-0.9c-0.2-0.2-0.6-0.2-0.8,0c-0.1,0.1-0.2,0.3-0.2,0.5c0.1,0.3,0.3,0.7,0.5,1C13.4,6,13.5,6,13.7,6 M26,28.8
			c0.3,0,0.5-0.2,0.8-0.4c0.1,0,0-0.1,0-0.2c-0.2-0.3-0.5-0.7-0.7-1c-0.2-0.3-0.3-0.3-0.6-0.2c-0.4,0.2-0.5,0.6-0.3,0.9
			c0.1,0.2,0.3,0.4,0.4,0.6C25.7,28.7,25.9,28.8,26,28.8 M30.9,10.2c0-0.2-0.2-0.4-0.3-0.7c0,0-0.1-0.1-0.1,0c0,0,0,0,0,0
			c-0.1,0.1-0.2,0.1-0.3,0.2c-0.3,0.2-0.7,0.3-1,0.6c-0.1,0.1-0.1,0.1,0,0.2c0.1,0.2,0.3,0.2,0.4,0c0.1-0.1,0.1-0.1,0.2-0.1
			c0.1,0,0.2-0.1,0.2,0c0,0.1,0,0.1-0.1,0.2s-0.2,0.2-0.3,0.2c-0.2,0.1,0,0.2,0,0.4c0,0.1,0.1,0.1,0.1,0.1c0.2-0.2,0.5-0.2,0.6-0.5
			c0-0.1,0.1-0.1,0.2-0.1C30.6,10.7,30.8,10.5,30.9,10.2C30.9,10.2,30.9,10.2,30.9,10.2 M11.6,26.8c-0.1,0-0.1-0.2-0.2-0.2
			c-0.1,0-0.1,0-0.2,0.1c-0.3,0.4-0.5,0.8-0.8,1.1c-0.2,0.2,0.1,0.2,0.1,0.3s0.2,0.1,0.2-0.1c0.1-0.1,0.1-0.2,0.2-0.3
			c0.1-0.1,0.2,0,0.3,0c0.1,0.1,0.1,0.2,0,0.2c-0.1,0.1-0.1,0.2-0.2,0.3c-0.1,0.2,0,0.2,0.1,0.3s0.1,0,0.2-0.1
			c0.2-0.3,0.4-0.5,0.6-0.8c0.1-0.1,0.2-0.2,0.3-0.4c0-0.1,0-0.2-0.1-0.3c0,0,0,0,0,0c-0.1,0-0.2-0.1-0.3,0.1c0,0.1-0.1,0.2-0.2,0.3
			c-0.1,0.2-0.2,0.2-0.3,0.1s0-0.2,0.1-0.2C11.4,27.1,11.5,26.9,11.6,26.8 M7.3,9.7c-0.2,0-0.4,0.2-0.6,0.5
			c-0.1,0.2-0.2,0.4,0.1,0.4c0,0,0.1,0.1,0.1,0.1c0.3,0.2,0.7,0.4,1,0.6c0,0,0.1,0.1,0.1,0c0-0.1,0.1-0.1,0.2-0.2
			c0.1-0.2,0.3-0.4,0.2-0.6c-0.1-0.3-0.3-0.4-0.6-0.4c-0.1,0-0.2,0-0.2-0.1C7.6,9.8,7.4,9.7,7.3,9.7 M31.4,18.9L31.4,18.9L31.4,18.9
			c-0.4,0-0.6,0.1-0.6,0.4c-0.1,0.3,0,0.6,0.3,0.7c0.3,0.1,0.6,0.2,0.9,0.2c0.3,0.1,0.5-0.1,0.6-0.4c0,0,0-0.1,0-0.1
			c0-0.4-0.1-0.5-0.5-0.7C31.8,18.9,31.6,18.9,31.4,18.9 M10.5,7.3c0.2-0.1,0.3,0,0.5,0.1c0,0.1,0.2,0.2,0.3,0.1c0,0,0,0,0,0
			c0.1,0,0.2-0.2,0.1-0.2c-0.1-0.2-0.3-0.4-0.5-0.4c-0.2-0.1-0.2-0.1-0.2-0.3c0-0.3-0.3-0.5-0.5-0.4C10,6.3,9.8,6.5,9.6,6.7
			c-0.1,0.1,0,0.1,0,0.2c0.3,0.3,0.6,0.7,0.9,1C10.5,8,10.6,8.1,10.8,8c0.1-0.1,0.2-0.2,0.1-0.3C10.7,7.5,10.6,7.4,10.5,7.3
			 M6.9,24.1c0,0.3,0.2,0.5,0.4,0.7c0.1,0.2,0.2,0.1,0.3,0.1c0.4-0.2,0.7-0.5,1.1-0.7c0.2-0.1,0.2-0.2,0.1-0.4
			c-0.1-0.2-0.3-0.1-0.4,0c-0.1,0.1-0.2,0.1-0.2,0.1C8,24,8,23.9,8,23.9c-0.1-0.1,0-0.1,0.1-0.1c0.1-0.1,0.2-0.2,0.3-0.2
			c0.1,0,0.2-0.1,0.1-0.2c-0.1-0.1-0.1-0.2-0.2-0.3c0,0-0.1,0-0.1,0c0,0.2-0.3,0.2-0.3,0.3c-0.1,0.2-0.3,0.3-0.5,0.3
			C7.1,23.7,6.9,23.9,6.9,24.1 M17.6,4.6c0-0.1,0-0.1,0-0.2c0-0.1-0.1-0.2,0.1-0.2s0.2,0.1,0.2,0.2c0,0.1,0,0.2,0,0.4
			c0,0.2,0.2,0.1,0.3,0.1c0.1,0,0.2,0,0.1-0.1c-0.1-0.2,0-0.5-0.2-0.7c0,0-0.1-0.1,0-0.2c0.1-0.1,0.2-0.3,0.1-0.5
			c-0.1-0.1-0.2-0.2-0.4-0.2c-0.2,0-0.4,0-0.5,0s-0.2,0.1-0.2,0.2c0,0.4,0.1,0.9,0.1,1.3c0,0.1,0.1,0.2,0.2,0.2c0.1,0,0.1,0,0.2,0
			C17.7,4.8,17.6,4.7,17.6,4.6 M15,4.9C15,5,15.1,5,15.2,5.1c0,0.1,0.1,0.2,0.2,0.2c0.1,0.1,0.2,0,0.3,0c0.1,0,0.1-0.1,0.1-0.1
			c0,0,0,0,0,0c-0.2-0.4-0.3-0.9-0.4-1.4c0-0.1,0-0.2-0.1-0.2c-0.1,0-0.2,0-0.3,0.1c-0.1,0,0,0.1,0,0.2c0.1,0.2,0.2,0.4,0.2,0.6
			c-0.2-0.2-0.3-0.4-0.4-0.6c-0.1-0.1-0.2-0.1-0.2-0.1s-0.3,0.1-0.2,0.3c0.2,0.4,0.3,0.9,0.4,1.3c0,0.1,0.1,0.2,0.2,0.1
			S15,5.5,15,5.3C15,5.2,14.9,5.1,15,4.9 M5.7,18.7c0,0.1-0.1,0.1-0.1,0.2c-0.1,0-0.3,0.1-0.4,0.2c-0.1,0.1-0.1,0.2-0.1,0.3
			c0,0.1,0.1,0.1,0.2,0.1c0.5,0,1-0.1,1.4-0.1c0.1,0,0.2-0.1,0.1-0.2c0-0.1,0-0.2-0.2-0.2c-0.1,0-0.3,0.1-0.3,0
			c0-0.1,0.2-0.2,0.3-0.2c0.2-0.1,0.1-0.3,0.1-0.4c0-0.2-0.1-0.1-0.2-0.1c-0.5,0-0.9,0.1-1.3,0.2C5,18.4,5,18.5,5,18.6
			c0,0.2,0.1,0.1,0.2,0.1C5.3,18.7,5.5,18.7,5.7,18.7 M4.1,17c0-0.7,0-1.5,0.1-2.2c0.1-0.9,0.4-1.9,0.7-2.7C5,11.5,5.2,11,5.5,10.5
			c0.3-0.6,0.7-1.2,1.1-1.8C7,8.1,7.4,7.5,7.9,7c0.4-0.5,0.9-1,1.4-1.4c0.5-0.4,0.9-0.7,1.4-1.1c0.3-0.2,0.7-0.4,1-0.6
			c0.4-0.2,0.9-0.4,1.3-0.6c0.2-0.1,0.4-0.2,0.7-0.2c0.4-0.1,0.7-0.2,1.1-0.3c1.2-0.3,2.4-0.5,3.6-0.5c0.9,0,1.8,0,2.7,0.1
			c0.7,0.1,1.5,0.3,2.2,0.5C24.3,3.2,25.2,3.6,26,4c0.8,0.4,1.5,1,2.2,1.5c0.5,0.4,1,0.9,1.5,1.4c0.4,0.4,0.8,0.9,1.1,1.4
			c0.5,0.7,0.9,1.4,1.3,2.1c0.2,0.5,0.5,1,0.6,1.5c0.2,0.6,0.4,1.2,0.5,1.8c0.1,0.5,0.1,1,0.2,1.5c0.1,0.8,0.2,1.7,0.1,2.5
			c0,0.8-0.1,1.5-0.3,2.2c-0.2,0.8-0.4,1.6-0.7,2.4c-0.2,0.5-0.4,0.9-0.6,1.4c-0.4,0.7-0.8,1.4-1.3,2.1c-0.4,0.5-0.9,1.1-1.3,1.6
			c-0.3,0.3-0.6,0.5-0.9,0.8c-0.3,0.3-0.7,0.6-1,0.8c-0.3,0.2-0.6,0.4-0.9,0.6c-0.5,0.3-1,0.5-1.5,0.8c-0.1,0.1-0.1,0-0.2,0
			c-0.2-0.2-0.3-0.5-0.4-0.7c-0.4-0.7-0.7-1.4-1.1-2.1c0,0-0.1-0.1-0.1-0.1c-0.1-0.2-0.1-0.3,0.1-0.4c0.7-0.3,1.3-0.7,1.9-1.1
			c0.5-0.4,1.1-0.9,1.5-1.3c0.3-0.3,0.6-0.7,0.8-1c0.3-0.4,0.6-0.8,0.8-1.3c0.2-0.4,0.5-0.9,0.6-1.3c0.2-0.7,0.4-1.4,0.5-2.1
			c0.2-1,0.2-2,0.1-2.9c0-0.4-0.1-0.8-0.2-1.2c-0.2-0.9-0.5-1.8-0.9-2.6c-0.3-0.6-0.7-1.2-1.1-1.7c-0.4-0.5-0.9-1-1.3-1.5
			c-0.3-0.3-0.7-0.6-1-0.8c-0.4-0.3-0.9-0.6-1.4-0.8C23.7,7,23.5,7,23.3,6.9c-0.7-0.3-1.3-0.5-2-0.7c-0.4-0.1-0.8-0.1-1.2-0.2
			c-0.5-0.1-1-0.1-1.5-0.1C17.9,6,17.2,6,16.5,6.2c-0.7,0.1-1.4,0.4-2.1,0.7c-0.7,0.3-1.4,0.7-2.1,1.2c-0.5,0.4-1,0.8-1.5,1.3
			c-0.6,0.6-1,1.2-1.5,1.9c-0.4,0.8-0.8,1.6-1.1,2.4c-0.4,1.3-0.6,2.8-0.5,4.2c0,0.4,0.1,0.9,0.1,1.3c0.2,1,0.6,2,1,2.9
			c0.3,0.5,0.5,0.9,0.8,1.4c0.3,0.5,0.7,0.9,1.1,1.3c0.3,0.4,0.7,0.7,1.1,1c0.3,0.2,0.6,0.5,0.9,0.6c0.3,0.2,0.6,0.4,1,0.6
			c0.2,0.1,0.4,0.2,0.7,0.3c0.1,0.1,0.2,0.1,0.1,0.3c-0.2,0.4-0.4,0.8-0.6,1.2c-0.2,0.5-0.5,1.1-0.7,1.6c-0.1,0.3-0.3,0.3-0.6,0.2
			c-0.4-0.2-0.8-0.4-1.2-0.6c-0.4-0.3-0.8-0.5-1.2-0.8c-0.4-0.3-0.7-0.5-1.1-0.8c-0.4-0.3-0.7-0.7-1.1-1c-0.4-0.4-0.7-0.8-1.1-1.3
			c-0.3-0.4-0.6-0.8-0.8-1.2c-0.3-0.5-0.6-1.1-0.9-1.6c-0.2-0.5-0.4-1-0.6-1.4c-0.2-0.7-0.4-1.3-0.5-2c-0.1-0.4-0.1-0.9-0.2-1.3
			C4,17.9,4,17.5,4.1,17"/>
		<path id="Path_570" class="st22" d="M12.7,8.7c-0.1,0-0.2,0-0.2,0.1c-0.7,0.6-1.3,1.3-1.8,1.9c-0.4,0.5-0.7,1.1-1,1.6
			C9.3,13,9,13.7,8.9,14.3c-0.2,0.6-0.3,1.2-0.3,1.9c-0.1,1.1,0,2.1,0.2,3.2c0,0.2,0.1,0.2,0.3,0.2c1,0,2.1,0,3.1,0
			c0.2,0,0.2,0,0.2,0.2c0,1,0,2,0,3c0,0.2-0.1,0.2-0.2,0.2c-0.5,0-1,0-1.5,0c-0.1,0-0.1,0-0.2,0c0,0.1,0.1,0.1,0.1,0.1
			c0.1,0.2,0.3,0.4,0.5,0.6c0.6,0.7,1.3,1.3,2.1,1.8c1.2,0.8,2.6,1.3,4,1.6c0.4,0.1,0.9,0.1,1.3,0.1c0.9,0,1.9,0,2.8-0.2
			c0.2,0,0.3-0.1,0.2-0.3c0-1,0-2.1,0-3.1c0-0.2,0-0.3,0.2-0.3c1,0,2,0,3.1,0c0.2,0,0.2,0,0.2,0.2c0,0.5,0,1,0,1.4
			c0,0.1-0.1,0.2,0.1,0.2s0.1-0.1,0.2-0.1c0.1-0.1,0.2-0.2,0.3-0.3c0.3-0.2,0.5-0.5,0.8-0.7c0.3-0.3,0.6-0.7,0.8-1
			c0.4-0.5,0.7-1.1,1-1.7c0.3-0.7,0.6-1.4,0.7-2.1c0.2-0.8,0.3-1.6,0.3-2.3c0-0.8-0.1-1.5-0.3-2.2c-0.1-0.4,0-0.4-0.4-0.4
			c-1,0-2,0-3,0c-0.2,0-0.3,0-0.3-0.3c0-1,0-2,0-3c0-0.2,0.1-0.3,0.3-0.3c0.5,0,0.9,0,1.4,0c0.1,0,0.1,0,0.2,0c0-0.1,0-0.1-0.1-0.2
			c-0.2-0.2-0.4-0.3-0.5-0.5c-0.3-0.3-0.7-0.7-1-1c-0.4-0.3-0.8-0.6-1.2-0.9c-0.5-0.3-1-0.6-1.6-0.8c-0.6-0.2-1.1-0.4-1.7-0.5
			c-0.5-0.1-1.1-0.2-1.6-0.2c-1,0-1.9,0-2.9,0.2c-0.2,0-0.2,0.1-0.2,0.3c0,1,0,2.1,0,3.1c0,0.2,0,0.3-0.2,0.3c-1,0-2,0-3.1,0
			c-0.2,0-0.3-0.1-0.2-0.2C12.7,9.8,12.7,9.3,12.7,8.7 M8.1,17c0-5.9,4.8-10.8,10.7-10.8c0,0,0,0,0.1,0c1.5,0,2.9,0.3,4.3,0.9
			c4,1.7,6.5,5.6,6.5,9.9c0.1,2.4-0.7,4.7-2.2,6.5c-2,2.7-5.3,4.3-8.7,4.3C12.8,27.8,8,22.9,8.1,17"/>
		<path id="Path_571" class="st22" d="M16.7,30.3c0-0.3,0.1-0.6,0.1-0.9c0-0.2,0-0.2-0.2-0.2c-0.2,0-0.4,0.1-0.5-0.2
			c-0.1-0.1-0.2,0-0.2,0c0,0,0,0,0,0c-0.1,0.1-0.1,0.2,0,0.3c0,0,0,0,0,0c0.2,0.1,0.4,0.4,0.2,0.6c0,0.1-0.1,0.1-0.1,0.1
			c-0.1,0.1-0.2,0.2-0.4,0.1c-0.1,0-0.3-0.1-0.3-0.2c0-0.1,0-0.1,0-0.2c0,0,0.1,0,0.1,0.1c0.1,0.2,0.2,0.2,0.3,0.1
			c0.1,0,0.1-0.1,0.2-0.1c0-0.2-0.1-0.3-0.2-0.3c-0.2-0.1-0.3-0.3-0.3-0.5c0-0.2,0.2-0.4,0.4-0.4c0.1,0,0.2,0,0.2,0.1
			c0.2,0.1,0.4,0.1,0.6,0.1c0.1,0,0.3,0,0.4,0c0.1,0,0.1,0,0.1,0.2c0,0.2-0.1,0.1-0.2,0.1s-0.2,0-0.2,0.1c0,0.3-0.1,0.7-0.1,1
			c0,0.1,0,0.2-0.1,0.2S16.7,30.4,16.7,30.3C16.7,30.3,16.7,30.3,16.7,30.3"/>
		<path id="Path_572" class="st22" d="M17.7,30.1c0,0.1-0.1,0.2,0.1,0.3c0.1,0.1,0.3,0,0.4-0.1c0.1-0.2,0.1-0.5,0.1-0.7
			c-0.1-0.2-0.3-0.2-0.4-0.2c-0.2,0-0.1,0.1-0.1,0.2C17.8,29.7,17.8,29.9,17.7,30.1 M17.9,30.6c-0.1,0-0.2,0-0.3,0
			c-0.1,0-0.2-0.1-0.1-0.2c0.1-0.4,0.1-0.8,0.1-1.2c0-0.2,0.1-0.3,0.3-0.2c0.1,0,0.3,0.1,0.4,0.1c0.1,0,0.2,0.1,0.3,0.3
			c0.1,0.4,0,0.8-0.2,1.1C18.2,30.7,18,30.6,17.9,30.6"/>
		<path id="Path_573" class="st22" d="M21.2,29.5c0-0.1,0-0.3-0.2-0.3c-0.1,0-0.2,0.1-0.3,0.2c0,0,0,0,0,0.1c0,0.2,0.1,0.3,0.3,0.3
			C21.1,29.8,21.2,29.7,21.2,29.5 M21.3,29.8c-0.1,0.2-0.4,0.2-0.6,0.1c-0.2-0.1-0.2-0.5-0.1-0.7c0.1-0.2,0.3-0.3,0.5-0.3
			c0.2,0,0.3,0.2,0.4,0.4c0.1,0.3,0.1,0.6,0,0.9c0,0.2-0.3,0.3-0.5,0.3c-0.1,0-0.1-0.1-0.2-0.1c-0.1-0.1-0.1-0.1,0-0.2
			s0.1,0,0.1,0.1c0.1,0.1,0.3,0,0.4-0.1c0,0,0-0.1,0-0.1C21.3,30,21.3,29.9,21.3,29.8"/>
		<path id="Path_574" class="st22" d="M15,28.8c0,0.1,0,0.1-0.1,0.2c-0.1,0.1,0,0.2,0.1,0.2c0.1,0,0.2,0.1,0.3,0.1s0.1,0.1,0,0.2
			c0,0-0.1,0.1-0.1,0c0,0,0,0,0,0c-0.1-0.1-0.2-0.1-0.2-0.1c-0.2-0.1-0.4,0.1-0.4,0.3c0,0.1,0.1,0.1,0.2,0.1c0.1,0.1,0.4,0,0.3,0.2
			c-0.1,0.2-0.3,0-0.4,0c-0.4-0.1-0.5-0.3-0.3-0.6c0.1-0.2,0.2-0.4,0.2-0.6c0.1-0.3,0.1-0.4,0.5-0.2c0.1,0,0.2,0.1,0.3,0.1
			c0,0,0.1,0.1,0,0.1c0,0,0,0,0,0c0,0.1-0.1,0.1-0.1,0c-0.1,0-0.1-0.1-0.2-0.1C15.2,28.8,15.1,28.8,15,28.8"/>
		<path id="Path_575" class="st22" d="M22.8,29.8c0.1,0,0.1,0,0.2,0c0.1,0,0.3,0,0.3-0.2c0,0,0,0,0,0c0.1-0.1,0-0.3-0.1-0.4
			c-0.1-0.1-0.3-0.1-0.4,0c-0.1,0.1-0.2,0.1-0.2-0.1s-0.1-0.3-0.1-0.5c0,0,0-0.1,0-0.1c0.2-0.1,0.4-0.2,0.6-0.2
			c0.1,0,0.1,0.1,0.1,0.1c0,0.1,0,0.1-0.1,0.1s-0.1,0-0.2,0.1c-0.1,0-0.2,0.1-0.2,0.2S22.9,29,23,29c0.2-0.1,0.4,0,0.5,0.2
			c0,0,0,0,0,0c0.1,0.2,0.1,0.5,0,0.7C23.2,30,23,30,22.8,29.8"/>
		<path id="Path_576" class="st22" d="M22.4,29.3c-0.1,0.2,0,0.5-0.2,0.6c0,0-0.1,0.1-0.1,0.1c0,0.1,0.1,0,0.2,0
			c0.1,0,0.1-0.1,0.2-0.1c0.1,0,0.1,0,0.1,0.1c0,0.1,0,0.1-0.1,0.1c-0.2,0-0.3,0.1-0.5,0.1c-0.2,0.1-0.3,0-0.2-0.2
			c0.1-0.2,0.2-0.5,0.3-0.7c0.1-0.2,0-0.3-0.1-0.4c-0.1-0.1-0.2-0.1-0.3,0c0,0,0,0,0,0c0,0.1-0.1,0.1-0.2,0.1s0-0.1,0-0.2
			c0.1-0.2,0.3-0.3,0.5-0.2C22.4,28.8,22.4,29,22.4,29.3"/>
		<path id="Path_577" class="st22" d="M20,29.4c-0.2,0.1-0.2,0.2-0.3,0.3c0,0-0.1,0.1-0.1,0c0,0,0-0.1,0-0.1
			c0.1-0.2,0.3-0.4,0.5-0.5c0.1-0.1,0.2,0,0.2,0.1c0,0.4,0.1,0.9,0.1,1.3c0,0.1,0,0.1-0.1,0.1c-0.1,0-0.1-0.1-0.1-0.1
			C20.1,30.1,20,29.7,20,29.4"/>
		<path id="Path_578" class="st22" d="M18.9,30.6c0,0.1-0.1,0.1-0.1,0.1c-0.1,0-0.2,0-0.2-0.1c0-0.1,0.1-0.1,0.1-0.1
			C18.8,30.4,18.9,30.5,18.9,30.6"/>
		<path id="Path_579" class="st22" d="M5.7,18.7c-0.2,0-0.3,0-0.5,0c-0.1,0-0.2,0.1-0.2-0.1c0-0.1,0-0.2,0.2-0.2
			c0.4-0.1,0.9-0.1,1.3-0.2c0.1,0,0.2-0.1,0.2,0.1c0,0.1,0.1,0.3-0.1,0.4c-0.1,0-0.3,0.1-0.3,0.2c0,0.2,0.2,0.1,0.3,0
			c0.2,0,0.1,0.1,0.2,0.2c0,0.1,0,0.2-0.1,0.2c-0.5,0-1,0.1-1.4,0.1c-0.1,0-0.2,0-0.2-0.1c0-0.1-0.1-0.2,0.1-0.3
			c0.1-0.1,0.3-0.1,0.4-0.2C5.6,18.9,5.7,18.9,5.7,18.7"/>
		<path id="Path_580" class="st22" d="M15,4.9c-0.1,0.2,0,0.3,0.1,0.4c0,0.1,0,0.2-0.1,0.2s-0.2,0-0.2-0.1c-0.1-0.4-0.3-0.9-0.4-1.3
			c-0.1-0.2,0.1-0.2,0.2-0.3s0.2,0,0.2,0.1c0.2,0.2,0.2,0.5,0.4,0.6c0-0.2-0.1-0.4-0.2-0.6c0-0.1-0.1-0.2,0-0.2
			c0.1,0,0.2-0.1,0.3-0.1c0.1,0,0.1,0.1,0.1,0.2c0.1,0.5,0.2,0.9,0.4,1.4c0,0.1,0,0.1-0.1,0.2c0,0,0,0,0,0c-0.1,0-0.2,0.1-0.3,0
			c-0.1-0.1-0.1-0.2-0.2-0.2C15.1,5,15.1,5,15,4.9"/>
		<path id="Path_581" class="st22" d="M17.5,3.7c0.1,0.1-0.1,0.2,0.1,0.2c0.1,0,0.2-0.1,0.2-0.2s0-0.2-0.2-0.2S17.5,3.6,17.5,3.7
			 M17.6,4.6c0,0.1,0.1,0.2,0,0.3c-0.1,0.1-0.2,0.1-0.3,0c0,0-0.1-0.1,0-0.2c0-0.4,0-0.9-0.1-1.3c0-0.2,0-0.2,0.2-0.2s0.4,0,0.5,0
			c0.2,0,0.3,0.1,0.4,0.2c0.1,0.2,0.1,0.4-0.1,0.5c-0.1,0.1-0.1,0.1,0,0.2c0.2,0.2,0.1,0.5,0.2,0.7c0,0.1-0.1,0.1-0.1,0.1
			c-0.1,0-0.3,0.1-0.3-0.1c0-0.1,0-0.2,0-0.4c0-0.1,0-0.2-0.2-0.2s-0.1,0.1-0.1,0.2C17.6,4.5,17.6,4.6,17.6,4.6"/>
		<path id="Path_582" class="st22" d="M7.8,24.2c-0.1,0-0.1-0.2-0.2-0.2c-0.1,0-0.2,0.1-0.2,0.2c0,0.1,0,0.2,0.1,0.1
			C7.6,24.4,7.6,24.2,7.8,24.2 M6.9,24.1c0-0.2,0.2-0.4,0.4-0.4c0.2,0,0.4-0.1,0.5-0.3c0.1-0.1,0.3-0.1,0.3-0.3c0,0,0.1,0,0.1,0
			c0.1,0.1,0.1,0.2,0.2,0.3c0,0-0.1,0.1-0.1,0.2c-0.1,0.1-0.2,0.1-0.3,0.2c0,0-0.1,0.1-0.1,0.1c0,0,0.1,0.1,0.2,0.1
			c0.1,0,0.2-0.1,0.2-0.1c0.1-0.1,0.2-0.2,0.4,0c0.1,0.2,0.1,0.3-0.1,0.4c-0.4,0.2-0.7,0.5-1.1,0.7c-0.1,0.1-0.2,0.1-0.3-0.1
			C7.2,24.6,7,24.4,6.9,24.1"/>
		<path id="Path_583" class="st22" d="M10.2,6.6c-0.1,0-0.2,0-0.2,0.1c0.1,0.1,0.2,0.2,0.3,0.3c0.1,0,0.1-0.1,0.1-0.2
			C10.4,6.7,10.3,6.6,10.2,6.6 M10.5,7.3c0.1,0.1,0.2,0.3,0.3,0.4c0.1,0.1,0.1,0.2-0.1,0.3c-0.1,0.1-0.2,0-0.3-0.1
			c-0.3-0.3-0.6-0.7-0.9-1c-0.1-0.1-0.1-0.2,0-0.2c0.2-0.2,0.4-0.4,0.7-0.5c0.2-0.1,0.5,0.1,0.5,0.4c0,0.1,0.1,0.3,0.2,0.3
			c0.2,0.1,0.3,0.3,0.5,0.4c0,0.1,0,0.2-0.1,0.2c-0.1,0.1-0.2,0-0.3-0.1c0,0,0,0,0,0C10.9,7.2,10.7,7.1,10.5,7.3"/>
		<path id="Path_584" class="st22" d="M31.3,19.2c-0.1,0-0.2,0-0.3,0.1c0,0.1,0,0.2,0.1,0.2c0,0,0,0,0,0c0.3,0.1,0.6,0.1,0.9,0.1
			c0.1,0,0.1,0,0.1-0.1c0-0.1,0-0.1-0.1-0.1C31.8,19.3,31.6,19.3,31.3,19.2 M31.4,18.9c0.2,0,0.5,0.1,0.7,0.1
			c0.4,0.1,0.5,0.3,0.5,0.7c0,0.3-0.2,0.5-0.5,0.5c0,0-0.1,0-0.1,0c-0.3,0-0.6,0-0.9-0.2c-0.3-0.1-0.4-0.4-0.3-0.7
			c0.1-0.3,0.3-0.4,0.5-0.4L31.4,18.9C31.4,18.9,31.4,18.9,31.4,18.9"/>
		<path id="Path_585" class="st22" d="M7.4,10.3c0-0.1-0.1-0.2-0.2-0.2c0,0,0,0,0,0c-0.1,0-0.2,0.1-0.2,0.1c0.1,0.1,0.2,0.2,0.3,0.2
			C7.4,10.4,7.4,10.3,7.4,10.3 M8.1,10.7c0-0.1-0.1-0.2-0.2-0.2c0,0,0,0,0,0c-0.1,0-0.2,0.1-0.2,0.1c0.1,0.1,0.2,0.2,0.3,0.2
			C8.1,10.8,8.1,10.8,8.1,10.7 M7.3,9.7c0.2,0,0.3,0.1,0.4,0.3c0,0.1,0.1,0.1,0.2,0.1c0.3-0.1,0.5,0.1,0.6,0.4
			c0.1,0.2-0.1,0.4-0.2,0.6c0,0.1-0.1,0.1-0.2,0.2S8,11.3,8,11.3c-0.3-0.2-0.7-0.4-1-0.6c0,0-0.1-0.1-0.1-0.1
			c-0.3-0.1-0.2-0.2-0.1-0.4C6.9,9.9,7,9.7,7.3,9.7"/>
		<path id="Path_586" class="st22" d="M11.6,26.8c-0.1,0.2-0.2,0.3-0.3,0.4c-0.1,0.1-0.2,0.1-0.1,0.2s0.3,0.1,0.3-0.1
			c0-0.1,0.1-0.2,0.2-0.3c0.1-0.1,0.2-0.1,0.2-0.1c0.1,0,0.1,0.2,0.1,0.2c0,0,0,0,0,0c0,0.2-0.2,0.2-0.3,0.4
			c-0.2,0.3-0.4,0.5-0.6,0.8c-0.1,0.1-0.1,0.2-0.2,0.1s-0.2-0.2-0.1-0.3c0.1-0.1,0.1-0.2,0.2-0.3c0.1-0.1,0.1-0.2,0-0.2
			c-0.1,0-0.2-0.1-0.3,0c-0.1,0.1-0.2,0.2-0.2,0.3c-0.1,0.1-0.1,0.2-0.2,0.1s-0.3-0.1-0.1-0.3c0.3-0.4,0.6-0.7,0.8-1.1
			c0-0.1,0.1-0.1,0.2-0.1C11.4,26.6,11.5,26.7,11.6,26.8"/>
		<path id="Path_587" class="st22" d="M30.5,10.1c0-0.1-0.1-0.2-0.1-0.2c-0.1,0-0.2,0.1-0.3,0.2c0,0.1,0.1,0.2,0.2,0.2
			C30.4,10.3,30.5,10.2,30.5,10.1 M30.9,10.2c0,0.3-0.2,0.5-0.5,0.5c0,0,0,0,0,0c-0.1,0-0.1-0.1-0.2,0.1c-0.1,0.3-0.4,0.3-0.6,0.5
			c0,0-0.1,0-0.1-0.1c0-0.1-0.2-0.3,0-0.4c0.1-0.1,0.2-0.2,0.3-0.2s0.1-0.1,0.1-0.2c0-0.1-0.1-0.1-0.2,0c-0.1,0-0.2,0.1-0.2,0.1
			c-0.1,0.1-0.3,0.1-0.4,0c0-0.1-0.1-0.1,0-0.2c0.3-0.2,0.7-0.4,1-0.6c0.1-0.1,0.2-0.1,0.3-0.2c0,0,0.1,0,0.1,0c0,0,0,0,0,0
			C30.6,9.8,30.8,10,30.9,10.2"/>
		<path id="Path_588" class="st22" d="M26.3,28.3C26.3,28.3,26.3,28.3,26.3,28.3c-0.2-0.3-0.4-0.5-0.5-0.8c0-0.1-0.1-0.1-0.1-0.1
			c0,0,0,0,0,0c0,0-0.2,0.1-0.1,0.2c0.2,0.3,0.3,0.5,0.5,0.8c0.1,0,0.1,0,0.2,0C26.3,28.4,26.3,28.3,26.3,28.3 M26,28.8
			c-0.2,0-0.3-0.1-0.4-0.2c-0.1-0.2-0.3-0.4-0.4-0.6c-0.2-0.3-0.1-0.6,0.3-0.9c0.3-0.2,0.4-0.2,0.6,0.2c0.2,0.3,0.4,0.7,0.7,1
			c0,0,0.1,0.1,0,0.2C26.6,28.5,26.4,28.8,26,28.8"/>
		<path id="Path_589" class="st22" d="M13.3,4.7c0.1,0.3,0.2,0.6,0.3,0.8c0,0.1,0.1,0.1,0.2,0c0,0,0,0,0,0c0.1,0,0.1-0.1,0.1-0.1
			c-0.1-0.3-0.2-0.5-0.4-0.8c0-0.1-0.1-0.2-0.2-0.1C13.3,4.6,13.3,4.6,13.3,4.7 M13.7,6c-0.1,0-0.3-0.1-0.3-0.2
			c-0.2-0.3-0.3-0.6-0.5-1c-0.1-0.3,0.1-0.6,0.5-0.7c0.2,0,0.4,0,0.5,0.2c0.2,0.3,0.4,0.6,0.5,0.9C14.4,5.7,14,6,13.7,6"/>
		<path id="Path_590" class="st22" d="M25.5,5.3c0-0.1,0-0.1-0.1-0.2c-0.1,0-0.2,0-0.2,0.1c0,0,0,0,0,0c-0.1,0.3-0.3,0.5-0.4,0.8
			c0,0.1,0.1,0.1,0.1,0.2s0.1,0,0.1,0C25.3,5.9,25.4,5.7,25.5,5.3 M25.1,6.6c-0.2,0-0.5-0.1-0.6-0.3c-0.1-0.2-0.1-0.5,0.1-0.7
			c0.1-0.2,0.2-0.4,0.3-0.6c0.1-0.2,0.4-0.3,0.6-0.2c0.2,0.1,0.4,0.2,0.4,0.4c0,0.5-0.3,0.9-0.6,1.2C25.2,6.6,25.1,6.6,25.1,6.6"/>
		<path id="Path_591" class="st22" d="M7.1,20.4c0,0.2-0.1,0.4-0.3,0.4c-0.3,0.1-0.7,0.2-1.1,0.3c-0.1,0-0.2,0.1-0.2-0.1
			c0-0.1,0-0.3,0.1-0.3c0.2,0,0.3-0.1,0.5-0.1c0.2,0,0.4-0.1,0.6-0.2c0.1,0,0.1,0,0.1-0.1c0-0.1-0.1-0.1-0.2-0.1c-0.1,0-0.1,0-0.2,0
			c-0.3,0.1-0.6,0.2-1,0.3c-0.2,0.1-0.2,0-0.2-0.1s-0.1-0.2,0.1-0.2c0.3-0.1,0.7-0.2,1.1-0.3c0.1,0,0.2-0.1,0.4,0
			C7,19.9,7.2,20.1,7.1,20.4"/>
		<path id="Path_592" class="st22" d="M5.8,17.5c0.1,0,0.2,0,0.4,0c0.1,0,0.2,0,0.2-0.1c0-0.1,0-0.1-0.1-0.1c-0.1,0-0.3-0.1-0.3,0
			s-0.1,0.1-0.2,0.1c-0.1,0-0.1-0.1-0.1-0.2c0-0.4,0-0.4,0.3-0.4c0.6,0,0.6,0,0.6,0.6c0,0.2-0.1,0.5-0.3,0.5c0,0-0.1,0-0.1,0
			c-0.3,0-0.6,0-1,0c-0.3,0-0.4-0.2-0.4-0.5s0.1-0.5,0.4-0.5c0.1,0,0.2-0.1,0.2,0.1s0.1,0.3-0.1,0.4c-0.1,0-0.2,0-0.2,0.1
			s0.1,0.1,0.2,0.1C5.5,17.6,5.7,17.5,5.8,17.5L5.8,17.5z"/>
		<path id="Path_593" class="st22" d="M8.9,9.5C8.9,9.4,8.9,9.4,8.9,9.5C8.7,9.2,8.6,9.1,8.4,9C8.3,8.9,8.3,8.8,8.1,8.8
			c-0.1,0-0.2,0-0.2,0.1S7.9,8.9,8,9c0.2,0.2,0.4,0.4,0.7,0.6C8.7,9.6,8.8,9.6,8.9,9.5C8.9,9.5,8.9,9.5,8.9,9.5 M7.6,9
			c0-0.2,0.1-0.4,0.3-0.5c0.2-0.1,0.5-0.1,0.6,0.1C8.7,8.6,8.9,8.8,9.1,9c0.2,0.2,0.3,0.6,0,0.8C8.9,10,8.6,10,8.3,9.9
			C8.1,9.7,7.9,9.5,7.7,9.3C7.6,9.2,7.6,9.1,7.6,9"/>
		<path id="Path_594" class="st22" d="M27,7.6c0.1,0,0.1,0,0.2-0.1c0.2-0.2,0.3-0.4,0.5-0.6c0-0.1,0-0.2,0-0.2c-0.1-0.1-0.2,0-0.2,0
			c-0.2,0.2-0.4,0.4-0.5,0.7c-0.1,0.1-0.1,0.2,0,0.2C26.9,7.6,26.9,7.6,27,7.6 M28.1,6.9c0,0.2-0.2,0.4-0.4,0.5
			c-0.1,0.1-0.2,0.3-0.4,0.4c-0.2,0.2-0.5,0.2-0.7,0c-0.3-0.2-0.3-0.6-0.1-0.9c0,0,0.1-0.1,0.1-0.1c0.1-0.1,0.2-0.2,0.3-0.3
			c0.1-0.2,0.4-0.3,0.6-0.2C27.9,6.4,28.1,6.7,28.1,6.9"/>
		<path id="Path_595" class="st22" d="M10.2,8.3c0,0.2-0.1,0.4-0.3,0.5C9.7,8.9,9.4,8.8,9.3,8.7C9,8.4,8.8,8.2,8.5,7.9
			c-0.2-0.1,0-0.2,0.1-0.3c0.1-0.1,0.2-0.1,0.3,0c0.2,0.3,0.5,0.5,0.7,0.7c0.1,0.1,0.2,0.1,0.2,0c0.1-0.1,0-0.2,0-0.2
			C9.6,8,9.4,7.7,9.1,7.5C9,7.5,8.9,7.4,9,7.2C9.1,7,9.1,7,9.3,7.2c0.3,0.3,0.5,0.5,0.8,0.8C10.2,8,10.2,8.1,10.2,8.3"/>
		<path id="Path_596" class="st22" d="M8.9,24.4c0.2,0,0.5,0.1,0.5,0.4c0.1,0.2,0,0.5-0.2,0.6c-0.3,0.2-0.5,0.4-0.8,0.6
			c-0.1,0.1-0.2,0.1-0.3,0c0,0,0,0-0.1-0.1c-0.1-0.1,0-0.2,0.1-0.3c0.2-0.2,0.5-0.4,0.8-0.6c0.1-0.1,0.2-0.1,0.1-0.2
			c-0.1-0.1-0.2-0.1-0.3,0c-0.3,0.2-0.5,0.4-0.8,0.6c-0.1,0.1-0.2,0.1-0.2,0c0-0.1-0.3-0.1-0.1-0.3c0.3-0.3,0.6-0.5,1-0.8
			C8.8,24.4,8.9,24.4,8.9,24.4"/>
		<path id="Path_597" class="st22" d="M30.9,11.5c-0.2-0.1-0.3,0-0.4,0c0,0-0.1,0-0.1,0.1s0,0.1,0.1,0.1c0,0,0.1,0,0.1,0
			C30.6,11.6,30.8,11.6,30.9,11.5 M31.2,11c0.2,0,0.2,0.2,0.3,0.3s0,0.2-0.1,0.3c-0.4,0.3-0.7,0.5-1.1,0.8c-0.1,0.1-0.2,0.2-0.3,0
			c-0.1-0.1-0.2-0.2,0-0.3c0.1,0,0.1-0.1,0.1-0.2c0,0,0,0,0,0c0-0.1-0.1-0.1-0.2-0.1c0,0,0,0,0,0c-0.3,0.1-0.2-0.1-0.3-0.2
			c-0.1-0.1,0-0.2,0.2-0.2c0.4-0.1,0.9-0.2,1.3-0.3C31.2,11,31.2,11,31.2,11"/>
		<path id="Path_598" class="st22" d="M30.9,18.1c0-0.4,0.1-0.5,0.4-0.6c0.1,0,0.3-0.1,0.3,0.1c0,0.1,0.1,0.3-0.2,0.3
			c-0.1,0-0.1,0-0.2,0.1s0.1,0.1,0.1,0.1c0.1,0,0.2,0,0.2,0c0.1-0.1,0.2-0.2,0.3-0.3c0.1-0.2,0.4-0.3,0.6-0.2
			c0.2,0.1,0.3,0.2,0.3,0.5c0,0.2-0.1,0.5-0.3,0.5c-0.1,0-0.2,0.1-0.3,0c0-0.1-0.1-0.3,0.1-0.3c0.1,0,0.2,0,0.1-0.1
			c0-0.1,0-0.1-0.1-0.1c-0.1,0-0.2,0-0.2,0.1c-0.1,0.1-0.2,0.3-0.3,0.4c-0.2,0.1-0.4,0.2-0.6,0C31,18.4,30.9,18.3,30.9,18.1"/>
		<path id="Path_599" class="st22" d="M20.4,4.3c0,0,0,0.1,0,0.1c0,0.1-0.1,0.3,0.1,0.3s0.2-0.1,0.2-0.2c0.1-0.2,0.2-0.1,0.3-0.1
			c0.1,0,0.1,0.1,0.1,0.2C21,4.8,20.8,5,20.6,5.1c-0.2,0-0.6-0.2-0.6-0.4c-0.1-0.4,0-0.9,0.2-1.2c0.2-0.2,0.5-0.3,0.7-0.1
			c0.2,0.1,0.3,0.3,0.3,0.6c0,0.1-0.1,0.1-0.1,0.1c-0.1,0-0.2,0-0.3-0.1c0,0,0-0.1,0-0.1c0-0.1,0-0.2-0.1-0.2s-0.1,0.1-0.1,0.2
			C20.4,3.9,20.4,4.1,20.4,4.3L20.4,4.3"/>
		<path id="Path_600" class="st22" d="M31.7,14.8h0.6c0.2,0,0.3,0.1,0.3,0.3c0,0.1-0.1,0.1-0.1,0.1c-0.5,0-1,0-1.5-0.1
			c-0.2,0-0.2-0.2-0.2-0.3c0-0.1,0-0.2,0.1-0.2c0.4-0.2,0.9-0.4,1.3-0.6c0.1,0,0.2-0.1,0.2,0c0,0.1,0.3,0.3,0,0.4
			C32.1,14.5,31.8,14.6,31.7,14.8"/>
		<path id="Path_601" class="st22" d="M32.7,16.1c0,0.1,0,0.2,0,0.3c0,0.1,0,0.2-0.2,0.2s-0.2,0-0.2-0.2c0-0.1,0-0.1,0-0.2
			c0-0.1,0-0.2-0.1-0.2c-0.1,0-0.2,0-0.2,0.2c0,0,0,0,0,0.1c0,0.1,0.1,0.3-0.1,0.3s-0.2-0.1-0.2-0.3s0-0.2-0.2-0.2
			c-0.2,0-0.2,0.2-0.2,0.3c0,0.2,0,0.3-0.2,0.3c-0.1,0-0.2,0-0.2-0.2c0,0,0,0,0,0c-0.1-0.8-0.1-0.8,0.7-0.8c0.3,0,0.5,0,0.8-0.1
			c0.2,0,0.3,0,0.3,0.2C32.7,15.9,32.7,16,32.7,16.1L32.7,16.1"/>
		<path id="Path_602" class="st22" d="M6.9,22.8c0.2,0.1,0.3-0.1,0.4-0.1c0.1,0,0-0.1,0-0.1s-0.1-0.1-0.1-0.1
			C7.1,22.7,7,22.7,6.9,22.8 M8.1,22.8C8.1,22.9,8.1,23,8,23c-0.4,0-0.8,0.2-1.2,0.3c-0.1,0-0.2,0-0.2,0.1c-0.1,0.1-0.1,0.1-0.2,0
			c0-0.1-0.1-0.2-0.1-0.2c-0.1-0.1,0-0.2,0-0.2c0,0,0,0,0,0c0.4-0.3,0.8-0.6,1.2-0.9c0.1-0.1,0.2,0,0.3,0.1c0.1,0.1,0.2,0.2,0,0.3
			c-0.2,0.1-0.1,0.2-0.1,0.3c0,0.1,0.1,0.1,0.2,0.1c0.1-0.1,0.2,0,0.3,0.1C8.1,22.7,8.1,22.8,8.1,22.8"/>
		<path id="Path_603" class="st22" d="M19.1,3.6C19,3.8,19,3.9,19,4c0,0.1,0,0.2,0.1,0.2c0.1,0,0.1-0.1,0.1-0.2
			C19.2,3.9,19.1,3.7,19.1,3.6 M19.5,4.9c-0.2,0-0.2,0-0.2-0.2c0-0.1,0-0.2-0.2-0.2s-0.1,0.1-0.2,0.2c0,0.2-0.2,0.2-0.3,0.2
			c-0.2,0-0.1-0.1-0.1-0.2c0-0.5,0.2-0.9,0.3-1.4c0-0.1,0.1-0.2,0.2-0.2c0.1,0.1,0.4-0.1,0.4,0.2c0,0.3,0.1,0.5,0.1,0.8
			c0,0.2,0.1,0.4,0.2,0.6C19.7,4.8,19.7,4.9,19.5,4.9"/>
		<path id="Path_604" class="st22" d="M13,6.2c0,0.2-0.1,0.3-0.3,0.4c-0.3,0.2-0.6,0.1-0.8-0.1c0-0.1-0.1-0.1-0.1-0.2
			c-0.1-0.2-0.2-0.4-0.3-0.6c-0.1-0.3,0.1-0.6,0.4-0.7c0.2-0.1,0.5,0,0.6,0.2c0,0.1,0.1,0.1,0,0.2c-0.1,0.1-0.2,0.1-0.4,0
			c-0.1-0.1-0.1-0.2-0.2-0.1c-0.1,0.1-0.1,0.2,0,0.3c0.1,0.2,0.2,0.4,0.3,0.6c0,0.1,0.1,0.1,0.2,0.1c0.1,0,0.1-0.1,0.1-0.1
			c0,0,0,0,0,0c-0.1-0.1-0.1-0.3,0-0.3c0,0,0.1-0.1,0.2-0.1C13,5.7,13,6,13,6.2C13,6.1,13,6.2,13,6.2"/>
		<path id="Path_605" class="st22" d="M30.3,20.9c0-0.3,0.2-0.6,0.5-0.6c0.1,0,0.2,0,0.2,0c0.3,0,0.5,0.1,0.8,0.3
			c0.3,0.1,0.4,0.4,0.3,0.7c0,0,0,0,0,0c-0.1,0.3-0.3,0.4-0.6,0.3c-0.1,0-0.2,0-0.2-0.1c0-0.1,0-0.2,0-0.2c0-0.1,0.1,0,0.2,0
			c0.1,0,0.2,0,0.2-0.1s0-0.1-0.1-0.2c-0.2-0.1-0.5-0.2-0.8-0.3c-0.1,0-0.2,0-0.2,0.1c0,0.1,0,0.2,0.1,0.2c0,0,0,0,0,0
			c0.3,0.1,0.1,0.3,0.1,0.4c0,0.1-0.1,0.1-0.1,0C30.5,21.4,30.3,21.1,30.3,20.9"/>
		<path id="Path_606" class="st22" d="M6.5,11.5L6.5,11.5L6.5,11.5L6.5,11.5z M6.6,11.5c0.2,0.1,0.3,0.2,0.4,0.3c0,0,0.1,0.1,0.2,0
			c0,0,0-0.1,0.1-0.1c0-0.1-0.1-0.1-0.1-0.1L6.6,11.5 M7.7,11.8c-0.1,0-0.2-0.1-0.3,0.1c-0.1,0.2,0,0.2,0.1,0.3c0.1,0.1,0,0.2,0,0.3
			c0,0.1-0.1,0.1-0.2,0C7,12.2,6.5,12,6.2,11.6c-0.2-0.2,0-0.3,0-0.4s0.2-0.1,0.2-0.1c0.5,0.1,0.9,0.2,1.4,0.3
			c0.1,0,0.1,0.1,0.1,0.2S7.9,11.9,7.7,11.8"/>
		<path id="Path_607" class="st22" d="M28.5,8.1c0.1,0,0.2,0,0.3-0.2c0-0.1-0.1-0.2-0.1-0.2c-0.1,0.1-0.2,0.1-0.3,0.3
			S28.4,8,28.5,8.1 M29.2,7.9c0,0.2-0.2,0.4-0.4,0.5c-0.2,0.1-0.4,0.1-0.5-0.1c-0.1-0.2-0.2-0.1-0.3,0s-0.2,0.3-0.4,0.2
			c-0.1-0.1-0.2-0.1,0-0.3c0.3-0.3,0.6-0.6,0.9-0.9c0.2-0.2,0.3-0.2,0.5,0c0.1,0.1,0.2,0.2,0.2,0.3C29.1,7.7,29.2,7.8,29.2,7.9"/>
		<path id="Path_608" class="st22" d="M29,9.2c-0.1,0-0.2,0.1-0.2,0.2c0,0.1,0,0.2,0.1,0.2c0.2,0.2,0.2,0.3,0,0.4c0,0-0.1,0.1-0.1,0
			c-0.2-0.2-0.3-0.4-0.5-0.6c-0.1-0.1,0-0.2,0.1-0.3c0.4-0.3,0.7-0.6,1.1-0.9c0.1-0.1,0.1-0.1,0.2,0c0.1,0.2,0.3,0.3,0.4,0.5
			c0.1,0.1,0.1,0.2,0,0.2c0,0,0,0,0,0c-0.1,0.1-0.2,0.1-0.2,0c0-0.1-0.1-0.1-0.1-0.1c0-0.1-0.1-0.2-0.2-0.1
			c-0.1,0.1-0.1,0.2-0.1,0.3c0,0,0,0,0,0c0,0,0,0.1,0.1,0.1c0.3,0.2,0,0.3-0.1,0.4c-0.1,0.1-0.1-0.1-0.2-0.1
			C29.2,9.4,29.2,9.2,29,9.2"/>
		<path id="Path_609" class="st22" d="M10,27c0-0.1,0-0.2-0.1-0.2c-0.1-0.1-0.2-0.2-0.1-0.3c0.1-0.1,0.1-0.1,0.2,0s0.2,0.2,0.4,0.1
			c0.2-0.1,0.2-0.2,0-0.3c-0.1-0.1-0.1-0.1-0.2-0.2s0-0.1,0-0.2s0.1-0.1,0.2,0c0.2,0.1,0.4,0.3,0.6,0.5c0.1,0.1,0,0.2,0,0.2
			c-0.3,0.3-0.5,0.6-0.8,0.9c-0.1,0.1-0.2,0.1-0.3,0.2c0,0-0.1,0-0.1,0c-0.1-0.2-0.3-0.3-0.4-0.4c-0.1-0.1-0.1-0.2,0-0.3
			c0.1-0.1,0.1,0,0.2,0s0.2,0.2,0.3,0.2C9.9,27.1,10,27,10,27"/>
		<path id="Path_610" class="st22" d="M30.9,23.7c-0.1,0-0.2,0-0.2-0.1s0-0.1,0.1-0.2c0-0.1,0.1-0.1,0.1-0.2c0-0.1,0-0.2-0.1-0.2
			c-0.1,0-0.1,0-0.2,0.1c0,0.1-0.1,0.2-0.2,0.3c-0.1,0-0.2,0-0.2-0.1c0-0.1,0-0.2,0.1-0.3c0-0.1,0.1-0.1,0.1-0.2
			c-0.1-0.1-0.2-0.1-0.3-0.1c-0.1,0-0.1,0.1-0.1,0.1c0,0.1-0.1,0.3-0.2,0.2c-0.2,0-0.3-0.1-0.1-0.3c0.1-0.1,0.2-0.3,0.2-0.4
			c0-0.1,0.1-0.2,0.3-0.1c0.4,0.2,0.8,0.5,1.2,0.6c0.1,0,0.1,0.2,0.1,0.3c-0.1,0.2-0.2,0.3-0.3,0.5C31.1,23.7,31,23.8,30.9,23.7
			C30.9,23.8,30.9,23.8,30.9,23.7"/>
		<path id="Path_611" class="st22" d="M23.1,5.3c0.1-0.4,0.3-0.7,0.5-1.1c0.1-0.2,0.5-0.1,0.8,0c0.2,0.1,0.2,0.4,0.2,0.6
			c0,0.1-0.1,0.1-0.2,0.1c0,0,0,0,0,0c-0.1,0-0.2,0-0.2-0.2c0-0.1,0.1-0.3-0.1-0.3s-0.2,0.1-0.3,0.3c-0.1,0.2-0.2,0.4-0.2,0.7
			c0,0.1,0,0.2,0.1,0.2c0.1,0,0.2,0,0.2-0.1c0-0.1,0.2-0.2,0.3-0.2c0,0,0.1,0,0.1,0.1c0.2,0.1,0,0.3-0.1,0.4C24,5.9,23.7,6,23.4,5.8
			C23.2,5.8,23.1,5.5,23.1,5.3"/>
		<path id="Path_612" class="st22" d="M5.4,16c0.2,0,0.4,0.1,0.6,0.1c0.1,0,0.1,0,0.1-0.1c0,0,0,0,0,0c0-0.1-0.1-0.1-0.1-0.1
			C5.8,15.9,5.6,15.9,5.4,16 M6.5,15.5c0.1,0,0.2-0.1,0.2,0.1c0,0.1,0,0.3-0.2,0.2c-0.1,0-0.2,0-0.2,0.2c0,0.1,0,0.2,0.1,0.2
			c0.3,0,0.2,0.2,0.1,0.4c-0.1,0.2-0.1,0-0.2,0c-0.4-0.1-0.8-0.3-1.3-0.4c-0.2,0-0.2-0.2-0.2-0.4s0.1-0.2,0.2-0.3
			C5.6,15.6,6.1,15.6,6.5,15.5"/>
		<path id="Path_613" class="st22" d="M30.1,25.1c-0.1,0.4-0.4,0.3-0.7,0.2c0,0.1,0.1,0.2,0.1,0.2c0.3,0.2,0,0.3-0.1,0.4
			c-0.1,0.1-0.1,0-0.2-0.1c-0.1-0.1-0.2-0.3-0.2-0.4c-0.1-0.3-0.3-0.5-0.6-0.6c-0.1-0.1-0.2-0.1-0.1-0.2s0.1-0.2,0.2-0.2
			c0.1,0,0.2,0,0.2,0.1c0.2,0.2,0.4,0.3,0.6,0.4C29.6,25,29.8,25,30.1,25.1"/>
		<path id="Path_614" class="st22" d="M16.6,3.3c0.1,0,0.2,0,0.2,0.2s0,0.2-0.2,0.2c-0.2,0-0.2,0.1-0.1,0.3c0.1,0.4,0.1,0.7,0.1,1.1
			c0,0.1-0.1,0.1-0.2,0.1s-0.2,0-0.2-0.1c0-0.4-0.1-0.7-0.1-1c0-0.2-0.1-0.2-0.2-0.2c-0.1,0-0.2,0-0.2-0.2s0-0.2,0.1-0.2
			C16.1,3.4,16.4,3.3,16.6,3.3"/>
		<path id="Path_615" class="st22" d="M32.1,12.9c0,0.2-0.1,0.1-0.2,0.2c-0.1,0.1-0.1,0-0.1-0.1c-0.1-0.1-0.2-0.2-0.4-0.1
			c-0.3,0.1-0.6,0.2-0.8,0.3s-0.3-0.1-0.3-0.3c-0.1-0.2,0.1-0.1,0.2-0.2c0.3-0.1,0.6-0.2,0.9-0.3c0.2,0,0.2-0.1,0.2-0.3
			c0-0.1,0-0.2,0.1-0.2c0.1,0,0.2,0,0.2,0.1C31.9,12.4,32.1,12.7,32.1,12.9"/>
		<path id="Path_616" class="st22" d="M21.5,5.1c0-0.1,0.1-0.1,0.1-0.2c0-0.3,0.1-0.6,0.2-0.9c0-0.1,0.1-0.3-0.1-0.3
			c-0.1,0-0.2,0-0.2-0.2c0-0.1,0.1-0.2,0.2-0.1c0,0,0,0,0,0c0.2,0,0.5,0.1,0.7,0.1c0.1,0,0.2,0.1,0.2,0.2c0,0,0,0,0,0
			c0,0.2-0.1,0.2-0.2,0.1c-0.2,0-0.2,0-0.2,0.2c0,0.3-0.1,0.7-0.2,1C21.9,5.3,21.8,5.3,21.5,5.1"/>
		<path id="Path_617" class="st22" d="M13,27.7c0,0.1-0.1,0.1-0.1,0.2c-0.1,0.3-0.3,0.5-0.5,0.8c-0.1,0.1-0.1,0.2,0.1,0.3
			c0.2,0.1,0.1,0.2,0,0.3c0,0.1-0.1,0.1-0.2,0.1c-0.3-0.1-0.5-0.3-0.8-0.4c-0.1,0-0.1-0.1,0-0.1c0.1-0.1,0.1-0.2,0.2-0.1
			c0.2,0.1,0.3,0,0.4-0.2c0.1-0.3,0.3-0.6,0.5-0.9c0-0.1,0.1-0.1,0.1-0.1C12.8,27.6,12.9,27.6,13,27.7"/>
		<path id="Path_618" class="st22" d="M27.1,28.2c-0.1,0-0.2-0.2-0.1-0.3c0.2-0.1,0.1-0.3,0-0.3c-0.2-0.2-0.4-0.5-0.6-0.7
			c-0.1-0.1-0.1-0.2,0-0.3c0.1,0,0.1-0.2,0.3,0c0.3,0.3,0.5,0.6,0.7,0.9c0.1,0.1,0.1,0.1,0.2,0s0.1-0.2,0.2,0c0,0.1,0.2,0.2,0,0.3
			C27.6,27.8,27.4,28,27.1,28.2C27.2,28.2,27.2,28.2,27.1,28.2"/>
		<path id="Path_619" class="st22" d="M30.8,24.1c0,0.1-0.1,0.1-0.1,0.2c-0.1,0.2-0.3,0.4-0.3,0.6c-0.1,0.2-0.2,0.1-0.3,0
			s-0.1-0.1,0-0.2c0.1-0.1,0.1-0.2-0.1-0.2c-0.3-0.2-0.6-0.4-0.9-0.6c-0.1-0.1-0.1-0.1,0-0.2c0-0.1,0.1-0.2,0.2-0.1
			c0.2,0.1,0.3,0.2,0.5,0.3c0.2,0.1,0.3,0.2,0.5,0.3c0.1,0,0.2,0.1,0.2-0.1c0-0.1,0.1-0.1,0.1-0.1c0,0,0,0,0.1,0
			C30.7,24,30.8,24,30.8,24.1"/>
		<path id="Path_620" class="st22" d="M27,26.5c0-0.1-0.1-0.1-0.2-0.2c0-0.1,0-0.1,0-0.2c0.2-0.1,0.3-0.3,0.5-0.5c0,0,0.1-0.1,0.1,0
			c0,0,0,0,0,0c0.2,0.3,0.5,0.5,0.7,0.8c0.1,0.1,0.3,0.2,0.3,0.3c0,0.1,0.2,0.1,0,0.2c-0.1,0.1-0.2,0.3-0.3,0.1
			c-0.2-0.3-0.5-0.5-0.7-0.8c-0.1-0.1-0.1-0.2-0.2,0C27.2,26.3,27.1,26.4,27,26.5"/>
		<path id="Path_621" class="st22" d="M7.4,12.9c0,0.2-0.1,0.4-0.2,0.6c-0.1,0.1-0.1,0.1-0.2,0.1c-0.1,0-0.3-0.1-0.4-0.1
			c-0.3-0.2-0.7-0.2-1-0.4c-0.1-0.1-0.1-0.1-0.1-0.2c0-0.1,0.1-0.2,0.2-0.2c0,0,0,0,0,0C6,12.8,6.3,12.9,6.5,13
			c0.2,0.1,0.4,0.2,0.5-0.2c0-0.1,0.1-0.1,0.2-0.1C7.3,12.7,7.4,12.7,7.4,12.9"/>
		<path id="Path_622" class="st22" d="M6,22.3c-0.1,0-0.1-0.2-0.2-0.3s0-0.1,0.1-0.1c0.3-0.1,0.6-0.2,1-0.4c0.1,0,0.3-0.1,0.1-0.3
			s-0.1-0.3,0.1-0.4c0.1,0,0.2,0,0.2,0.1c0,0.2,0.1,0.4,0.2,0.6c0,0,0,0.1,0,0.1c0,0,0,0-0.1,0C7,21.8,6.5,22.1,6,22.3
			C6,22.3,6,22.3,6,22.3"/>
		<path id="Path_623" class="st22" d="M5.3,14.6c0.3,0,0.7,0.1,1,0.2c0.1,0.1,0.2,0,0.2-0.2c0-0.1,0-0.2,0-0.2c0-0.1,0.1,0,0.2,0
			c0.1,0,0.1,0.1,0.1,0.1c0,0.2-0.1,0.4-0.1,0.7c0,0.1-0.1,0.1-0.2,0.1c-0.5-0.1-0.9-0.2-1.4-0.2C5.1,15,5,15,5.1,14.8
			C5.1,14.6,5.2,14.6,5.3,14.6"/>
		<path id="Path_624" class="st22" d="M30.7,14c-0.1,0-0.1-0.1-0.1-0.1s-0.1-0.2,0.1-0.2c0.1,0,0.1-0.1,0.2-0.1
			c0.4-0.1,0.8-0.2,1.2-0.3c0.1,0,0.2-0.1,0.2,0.1c0,0.1,0.1,0.2-0.1,0.3C31.7,13.8,31.2,13.9,30.7,14"/>
		<path id="Path_625" class="st22" d="M30.3,21.5c0.3,0.1,0.7,0.3,1,0.4c0.1,0,0.1,0,0.2,0.1c0.3,0.1,0.3,0.1,0.1,0.4
			c-0.1,0.1-0.1,0.1-0.2,0c-0.4-0.2-0.9-0.3-1.3-0.5C30,21.8,30,21.8,30,21.7C30,21.6,30.1,21.5,30.3,21.5
			C30.3,21.5,30.3,21.5,30.3,21.5"/>
		<path id="Path_626" class="st22" d="M25.9,6.2c0.2,0.1,0.4,0.1,0.5,0.3c0,0,0.2,0,0,0.1c-0.1,0,0,0.2-0.2,0.1
			c-0.2-0.1-0.3-0.2-0.4-0.3C25.7,6.4,25.9,6.3,25.9,6.2"/>
		<path id="Path_627" class="st22" d="M24.6,28.2c-0.2,0-0.2-0.2-0.2-0.3c0-0.2,0.1-0.2,0.2-0.2c0.1,0,0.2,0.1,0.2,0.2c0,0,0,0,0,0
			C24.9,28.1,24.7,28,24.6,28.2"/>
		<path id="Path_628" class="st24" d="M19.3,17c0-0.4,0-0.4-0.5-0.4c-0.4,0-0.4,0-0.4,0.4c0,0.6-0.1,0.5,0.5,0.5
			C19.2,17.4,19.3,17.5,19.3,17 M18.3,10.6c0.5,0,1.1,0,1.6,0c0.1,0,0.1,0,0.2,0c0.4-0.5,0.7-0.4,1,0c0.1,0.1,0.1,0.1,0.1,0
			c0.5-0.5,0.7-0.4,1.1-0.1c0.1,0.1,0.2,0.1,0.3,0c0.2-0.1,0.3-0.2,0.6-0.2c0.2,0,0.4,0.1,0.6,0.3c0.1,0,0.1,0.1,0.2,0
			c0.3-0.3,0.6-0.4,0.9-0.1c0.3,0.2,0.6,0.2,0.9,0.2c0.1,0,0.3,0,0.4,0c0.1,0,0.2,0,0.2,0s0-0.1-0.1-0.2C26,10,25.8,9.8,25.5,9.5
			c-0.4-0.4-0.9-0.7-1.3-1c-0.4-0.2-0.8-0.4-1.1-0.6c-0.8-0.4-1.7-0.6-2.6-0.8C19.7,7,19.1,7,18.5,7c-0.6,0-1.2,0.1-1.7,0.2
			c-0.1,0-0.2,0.1-0.2,0.2c0,1,0,2,0,2.9c0,0.1,0.1,0.2,0.2,0.2C17.3,10.6,17.8,10.6,18.3,10.6 M10.7,19.3c0.5,0,1,0,1.4,0
			c0.2,0,0.2,0,0.2-0.2c0-1.1,0-2.2,0-3.2c0-0.1,0-0.2-0.1-0.2c-0.3-0.2-0.4-0.5-0.2-0.7c0.2-0.2,0.2-0.4,0-0.6
			c-0.2-0.3-0.1-0.7,0.1-1c0.1-0.1,0.1-0.1,0-0.2c-0.3-0.3-0.3-0.8,0-1.1c0,0,0.1-0.1,0-0.2c-0.3-0.3-0.3-0.7-0.1-1c0,0,0,0,0.1-0.1
			c0.1,0,0.1-0.1,0.1-0.2c0-0.3,0-0.6,0-0.9c0-0.2-0.1-0.2-0.2-0.1C12,9.6,11.8,9.8,11.6,10c-0.4,0.4-0.7,0.8-1,1.3
			c-0.5,0.7-0.8,1.4-1.1,2.1c-0.3,0.8-0.5,1.7-0.6,2.6c-0.1,1-0.1,2,0.2,3c0,0.2,0.1,0.2,0.3,0.2C9.8,19.3,10.2,19.3,10.7,19.3
			 M11.1,23.4c0.1,0.2,0.2,0.3,0.4,0.5c0.3,0.3,0.6,0.6,1,0.9c0.5,0.4,1,0.7,1.5,1c0.4,0.2,0.9,0.4,1.3,0.6c1.8,0.7,3.7,0.8,5.6,0.4
			c0.2,0,0.2-0.1,0.2-0.3c0-1,0-1.9,0-2.9c0-0.2,0-0.2-0.2-0.2c-1.1,0-2.2,0-3.2,0c-0.1,0-0.3,0.1-0.3,0.2c-0.2,0.2-0.5,0.2-0.8,0
			c-0.2-0.2-0.3-0.1-0.4,0c-0.3,0.2-0.7,0.2-1,0c-0.1-0.2-0.3-0.1-0.4,0c-0.3,0.3-0.7,0.3-1,0c0,0,0,0,0,0c-0.1-0.1-0.2-0.1-0.3,0
			c-0.2,0.3-0.7,0.3-0.9,0c0,0,0,0,0,0c-0.1-0.1-0.1-0.1-0.2-0.1C12,23.4,11.6,23.4,11.1,23.4 M26.9,14.7c-0.5,0-1,0-1.4,0
			c-0.2,0-0.2,0-0.2,0.2c0,1.1,0,2.1,0,3.2c0,0.1,0,0.2,0.1,0.2c0.3,0.3,0.5,0.6,0.1,0.9c-0.1,0.1-0.1,0.1,0,0.3
			c0.3,0.5,0.4,0.7-0.1,1.2c-0.1,0.1,0,0.1,0,0.2c0.4,0.5,0.4,0.7,0,1.2c-0.1,0.1-0.1,0.1,0,0.2c0.3,0.2,0.3,0.5,0.2,0.8
			c0,0,0,0,0,0c-0.2,0.3-0.3,0.6-0.3,0.9c0,0.1,0,0.2,0,0.3c0,0.1-0.1,0.3,0.1,0.4s0.2-0.1,0.3-0.2c0.1,0,0.1-0.1,0.1-0.1
			c0.7-0.7,1.3-1.4,1.8-2.3c0.2-0.4,0.4-0.8,0.6-1.2c0.2-0.6,0.4-1.1,0.5-1.7c0.2-1.4,0.2-2.8,0-4.2c0-0.2-0.1-0.3-0.3-0.3
			C27.9,14.7,27.4,14.7,26.9,14.7 M20,12.6c0-0.5,0-1,0-1.5c0-0.1,0-0.2-0.2-0.2c-2.4,0-4.8,0-7.1,0c-0.2,0-0.4,0.1-0.3,0.4
			s0.1,0.3,0.4,0.3c0.8,0,1.6,0,2.4,0c0.2,0,0.3,0.1,0.3,0.3c0,0.2-0.1,0.2-0.3,0.2c-0.8,0-1.5,0-2.3,0c-0.1,0-0.2,0-0.3,0.1
			c-0.2,0.1-0.2,0.3-0.1,0.5c0.1,0.2,0.3,0.3,0.5,0.3c0.8,0,1.5,0,2.3,0c0.2,0,0.2,0.1,0.2,0.3c0,0.2,0,0.2-0.2,0.2
			c-0.8,0-1.6,0-2.3,0c-0.4,0-0.5,0.1-0.5,0.4s0.1,0.5,0.5,0.5c0.8,0,1.6,0,2.3,0c0.2,0,0.2,0.1,0.2,0.3s0,0.3-0.2,0.3
			c-0.3,0-0.5,0-0.8,0c-0.5,0-1.1,0-1.6,0c-0.2,0-0.4,0-0.4,0.3c0,0.3,0.2,0.3,0.4,0.3c1,0,2.1,0,3.1,0c0.6,0,0.6,0,0.7,0.6
			c0,0,0,0,0,0c0,0.1,0,0.2,0.2,0.2c0.8,0,1.5,0,2.3,0c0.2,0,0.2-0.1,0.2-0.2c0-0.4,0-0.7,0-1.1c0-0.2-0.1-0.4,0-0.6s0.4,0,0.5,0
			s0.2-0.1,0.2-0.2C20,13.6,20,13.1,20,12.6 M21.4,23.1L21.4,23.1c1.2,0,2.4,0,3.5,0c0.2,0,0.3,0,0.4-0.2c0-0.3-0.1-0.5-0.4-0.5
			c-0.7,0-1.5,0-2.2,0c-0.2,0-0.3,0-0.3-0.3s0.1-0.2,0.3-0.2c0.5,0,1,0,1.4,0c0.3,0,0.6,0,0.9,0c0.3,0,0.5-0.3,0.4-0.5
			C25.2,21.1,25,21,24.7,21c-0.7,0-1.5,0-2.2,0c-0.2,0-0.2-0.1-0.2-0.3s0.1-0.2,0.2-0.2c0.8,0,1.5,0,2.3,0c0.2,0,0.4-0.2,0.4-0.4
			c0,0,0-0.1,0-0.1c0-0.2-0.1-0.4-0.3-0.4c0,0-0.1,0-0.1,0c-0.8,0-1.5,0-2.3,0c-0.2,0-0.3-0.1-0.3-0.3c0-0.2,0.1-0.2,0.3-0.2
			c0.8,0,1.6,0,2.4,0c0.2,0,0.3-0.2,0.4-0.3s-0.1-0.2-0.1-0.3c-0.1-0.2-0.2-0.1-0.4-0.1c-1,0-2,0-3,0c-0.2,0-0.4,0.1-0.6,0
			c-0.2-0.1-0.1-0.4-0.1-0.6c0-0.1,0-0.2-0.2-0.2c-0.8,0-1.5,0-2.3,0c-0.2,0-0.2,0.1-0.2,0.2c0,0.4,0,0.7,0,1.1c0,0.6,0,0.6-0.6,0.6
			c-0.2,0-0.3,0-0.2,0.2c0,1,0,2,0,3c0,0.2,0.1,0.3,0.3,0.3C19,23.1,20.2,23.1,21.4,23.1 M12.7,19.5c0,1.2,0,2.3,0,3.5
			c0,0.3,0.1,0.5,0.4,0.5c0.3,0,0.3-0.1,0.3-0.5c0-0.8,0-1.5,0-2.3c0-0.2,0-0.3,0.3-0.3s0.3,0.1,0.3,0.3c0,0.7,0,1.5,0,2.2
			c0,0.3,0.2,0.5,0.4,0.5s0.4-0.2,0.4-0.5c0-0.7,0-1.5,0-2.2c0-0.2,0-0.3,0.3-0.3c0.2,0,0.3,0.1,0.3,0.3c0,0.8,0,1.5,0,2.3
			c0,0.3,0.1,0.4,0.4,0.4c0.3,0,0.4-0.1,0.4-0.4c0-0.8,0-1.6,0-2.4c0-0.2,0.1-0.2,0.3-0.2c0.2,0,0.2,0.1,0.2,0.2c0,0.4,0,0.9,0,1.3
			c0,0.4,0,0.7,0,1.1c0,0.2,0.1,0.3,0.3,0.3c0,0,0,0,0,0c0.2,0,0.3-0.2,0.3-0.3c0-0.1,0-0.1,0-0.2c0-1,0-2,0-3c0-0.6,0-0.6,0.6-0.6
			c0.1,0,0.2-0.1,0.2-0.2c0-0.8,0-1.5,0-2.3c0-0.2,0-0.2-0.2-0.2c-0.4,0-0.7,0-1.1,0c-0.6,0-0.6,0-0.6-0.6c0-0.2-0.1-0.2-0.2-0.2
			c-1,0-2,0-3,0c-0.2,0-0.3,0-0.3,0.3C12.7,17.2,12.7,18.4,12.7,19.5 M24.9,14.4L24.9,14.4c0-1.1,0-2.3,0-3.4c0-0.1,0-0.2,0-0.3
			c0-0.2-0.3-0.3-0.4-0.2c-0.3,0.1-0.3,0.2-0.3,0.4c0,0.7,0,1.5,0,2.2c0,0.2,0,0.3-0.3,0.3c-0.3,0-0.2-0.1-0.2-0.3
			c0-0.7,0-1.4,0-2.1c0-0.3-0.2-0.6-0.5-0.6c-0.3,0.1-0.4,0.3-0.4,0.6c0,0.7,0,1.4,0,2.2c0,0.2-0.1,0.3-0.3,0.3s-0.2-0.1-0.2-0.3
			c0-0.8,0-1.5,0-2.3c0-0.2-0.2-0.4-0.4-0.5c0,0,0,0,0,0c-0.3,0-0.5,0.2-0.5,0.5c0,0.8,0,1.6,0,2.3c0,0.2-0.1,0.2-0.2,0.2
			c-0.1,0-0.3,0-0.3-0.2c0-0.5,0-1.1,0-1.6c0-0.3,0-0.6,0-0.9c0-0.1-0.1-0.3-0.3-0.3c0,0,0,0,0,0c-0.1,0-0.3,0.1-0.3,0.2
			c0,0,0,0,0,0c0,0.1,0,0.2,0,0.3c0,1,0,2,0,2.9c0,0.2,0.1,0.5,0,0.6s-0.4,0-0.6,0.1c0,0-0.1,0-0.1,0c-0.1,0-0.1,0-0.1,0.1
			c0,0.8,0,1.6,0,2.4c0,0.1,0.1,0.2,0.2,0.2c0.4,0,0.8,0,1.1,0c0.6,0,0.6,0,0.6,0.5c0,0.2,0.1,0.3,0.3,0.3c1,0,2,0,3,0
			c0.2,0,0.2-0.1,0.2-0.2C24.9,16.8,24.9,15.6,24.9,14.4 M12.7,8.7c0,0.5,0,1,0,1.6c0,0.2,0.1,0.3,0.2,0.2c1,0,2,0,3,0
			c0.2,0,0.2-0.1,0.2-0.3c0-1,0-2.1,0-3.1c0-0.2,0.1-0.3,0.2-0.3c1-0.1,1.9-0.2,2.9-0.2c0.5,0,1.1,0.1,1.6,0.2
			c0.6,0.1,1.2,0.3,1.7,0.5c0.5,0.2,1.1,0.5,1.6,0.8c0.4,0.3,0.8,0.6,1.2,0.9c0.4,0.3,0.7,0.6,1,1c0.2,0.2,0.3,0.4,0.5,0.5
			c0.1,0,0.1,0.1,0.1,0.2c0,0.1-0.1,0-0.2,0c-0.5,0-0.9,0-1.4,0c-0.2,0-0.3,0-0.3,0.3c0,1,0,2,0,3c0,0.2,0.1,0.3,0.3,0.3
			c1,0,2,0,3,0c0.4,0,0.4,0,0.4,0.4c0.1,0.7,0.2,1.5,0.3,2.2c0,0.8-0.1,1.6-0.3,2.3c-0.1,0.7-0.4,1.4-0.7,2.1
			c-0.3,0.6-0.6,1.1-1,1.7c-0.3,0.4-0.6,0.7-0.8,1c-0.3,0.3-0.5,0.5-0.8,0.7c-0.1,0.1-0.2,0.2-0.3,0.3c-0.1,0.1-0.1,0.2-0.2,0.1
			s0-0.2-0.1-0.2c0-0.5,0-1,0-1.4c0-0.2-0.1-0.2-0.2-0.2c-1,0-2,0-3,0c-0.2,0-0.2,0.1-0.2,0.3c0,1,0,2.1,0,3.1
			c0,0.2-0.1,0.2-0.2,0.3c-0.9,0.2-1.9,0.3-2.8,0.2c-0.4,0-0.9,0-1.3-0.1c-1.4-0.2-2.8-0.8-4-1.6c-0.8-0.5-1.4-1.1-2.1-1.8
			c-0.2-0.2-0.3-0.4-0.5-0.6c0,0-0.1,0-0.1-0.1s0.1,0,0.2,0c0.5,0,1,0,1.5,0c0.2,0,0.2,0,0.2-0.2c0-1,0-2,0-3c0-0.2-0.1-0.2-0.2-0.2
			c-1,0-2.1,0-3.1,0c-0.2,0-0.2-0.1-0.3-0.2c-0.2-1-0.3-2.1-0.2-3.2c0.1-1.3,0.4-2.6,1-3.8c0.3-0.6,0.6-1.1,1-1.6
			c0.6-0.7,1.2-1.3,1.8-1.9C12.5,8.8,12.6,8.7,12.7,8.7"/>
		<path id="Path_629" class="st23" d="M17.7,30.1c0-0.2,0-0.4,0-0.5c0-0.1-0.1-0.2,0.1-0.2c0.2,0,0.4,0,0.4,0.2
			c0.1,0.2,0,0.5-0.1,0.7c-0.1,0.1-0.3,0.2-0.4,0.1C17.6,30.3,17.8,30.2,17.7,30.1"/>
		<path id="Path_630" class="st23" d="M21.2,29.5c0,0.2-0.1,0.3-0.2,0.3c-0.2,0-0.3-0.2-0.3-0.3c0-0.1,0.1-0.2,0.2-0.3
			c0,0,0,0,0.1,0C21.2,29.2,21.2,29.4,21.2,29.5"/>
		<path id="Path_631" class="st24" d="M17.5,3.7c0-0.1,0-0.2,0.1-0.2s0.2,0.1,0.2,0.2s0,0.2-0.2,0.2C17.4,3.9,17.6,3.7,17.5,3.7"/>
		<path id="Path_632" class="st24" d="M7.8,24.2c-0.1,0.1-0.2,0.2-0.3,0.2c-0.1,0-0.1-0.1-0.1-0.1c0-0.1,0.1-0.2,0.2-0.2
			C7.7,24,7.6,24.2,7.8,24.2"/>
		<path id="Path_633" class="st24" d="M10.2,6.6c0.1,0,0.2,0.1,0.2,0.2c0,0.1-0.1,0.2-0.1,0.2c-0.1-0.1-0.2-0.2-0.3-0.3
			C10,6.6,10.1,6.6,10.2,6.6"/>
		<path id="Path_634" class="st24" d="M31.3,19.2c0.2,0.1,0.5,0.1,0.8,0.2c0.1,0,0.1,0.1,0.1,0.1c0,0.1-0.1,0.1-0.1,0.1
			c-0.3,0-0.6,0-0.9-0.1c-0.1,0-0.1-0.1-0.1-0.2c0,0,0,0,0,0C31.1,19.2,31.2,19.2,31.3,19.2"/>
		<path id="Path_635" class="st24" d="M8.1,10.7c0,0.1,0,0.2-0.1,0.1c-0.1,0-0.2-0.1-0.3-0.2c0-0.1,0.1-0.2,0.2-0.1
			C8,10.4,8.1,10.5,8.1,10.7C8.1,10.7,8.1,10.7,8.1,10.7"/>
		<path id="Path_636" class="st24" d="M7.4,10.3c0,0.1,0,0.1-0.1,0.1c-0.1,0-0.2-0.1-0.3-0.2c0-0.1,0.1-0.1,0.2-0.1
			C7.3,10.1,7.4,10.2,7.4,10.3C7.4,10.3,7.4,10.3,7.4,10.3"/>
		<path id="Path_637" class="st24" d="M30.5,10.1c-0.1,0.1-0.1,0.2-0.2,0.2c-0.1,0-0.2-0.1-0.2-0.2c0-0.1,0.1-0.2,0.3-0.2
			C30.5,10,30.5,10.1,30.5,10.1"/>
		<path id="Path_638" class="st24" d="M26.3,28.3c0,0,0,0.1-0.1,0.1c-0.1,0-0.1,0-0.2,0c-0.2-0.2-0.4-0.5-0.5-0.8
			c-0.1-0.1,0.1-0.1,0.1-0.2c0,0,0.1,0,0.2,0c0,0,0,0,0,0C26,27.8,26.1,28,26.3,28.3C26.3,28.3,26.3,28.3,26.3,28.3"/>
		<path id="Path_639" class="st24" d="M13.3,4.7c0-0.1,0-0.2,0.1-0.2c0.1,0,0.1,0.1,0.2,0.1c0.1,0.3,0.3,0.5,0.4,0.8
			c0,0.1,0,0.1-0.1,0.1c-0.1,0.1-0.2,0.1-0.2,0c0,0,0,0,0,0C13.5,5.3,13.4,5,13.3,4.7"/>
		<path id="Path_640" class="st24" d="M25.5,5.3c-0.1,0.3-0.2,0.6-0.4,0.8c0,0.1-0.1,0.1-0.1,0s-0.1,0-0.1-0.2
			c0.1-0.3,0.3-0.5,0.4-0.8c0-0.1,0.1-0.1,0.2-0.1c0,0,0,0,0,0C25.5,5.2,25.5,5.3,25.5,5.3"/>
		<path id="Path_641" class="st24" d="M8.9,9.5c0,0.1-0.1,0.2-0.2,0.2c0,0-0.1,0-0.1,0C8.4,9.4,8.2,9.2,8,9C7.9,8.9,7.9,8.9,7.9,8.8
			s0.1-0.1,0.2-0.1c0.1,0,0.2,0.1,0.3,0.2C8.6,9.1,8.8,9.2,8.9,9.5C8.9,9.4,9,9.4,8.9,9.5"/>
		<path id="Path_642" class="st24" d="M27,7.6c-0.1,0-0.2-0.1-0.2-0.1c0,0,0-0.1,0-0.1c0.2-0.2,0.4-0.4,0.5-0.7
			c0.1-0.1,0.2-0.1,0.2,0c0.1,0.1,0.1,0.2,0,0.2c-0.1,0.2-0.3,0.4-0.5,0.6C27.1,7.5,27,7.6,27,7.6"/>
		<path id="Path_643" class="st24" d="M30.9,11.5c-0.1,0.1-0.2,0.1-0.3,0.2c0,0-0.1,0.1-0.1,0c-0.1,0,0-0.1-0.1-0.1s0-0.1,0.1-0.1
			C30.6,11.5,30.7,11.5,30.9,11.5"/>
		<path id="Path_644" class="st24" d="M6.9,22.8c0.1-0.1,0.3-0.1,0.4-0.3c0,0,0.1,0,0.1,0.1s0,0.1,0,0.1C7.2,22.8,7,22.9,6.9,22.8"
			/>
		<path id="Path_645" class="st24" d="M19.1,3.6c0.1,0.1,0.1,0.3,0.1,0.4c0,0.1,0,0.2-0.1,0.2C19,4.2,19,4.1,19,4
			C19,3.9,19,3.8,19.1,3.6"/>
		<path id="Path_646" class="st24" d="M6.6,11.5L7,11.6c0.1,0,0.1,0,0.1,0.1c0,0,0,0.1-0.1,0.1c-0.1,0-0.1,0-0.2,0
			C6.8,11.7,6.7,11.7,6.6,11.5"/>
		<path id="Path_647" class="st24" d="M6.5,11.5L6.5,11.5L6.5,11.5L6.5,11.5z"/>
		<path id="Path_648" class="st24" d="M28.5,8.1c-0.1,0-0.2,0-0.1-0.1s0.2-0.2,0.3-0.3c0,0,0.1,0.1,0.1,0.2C28.7,8,28.6,8,28.5,8.1"
			/>
		<path id="Path_649" class="st24" d="M5.4,16c0.2-0.1,0.4-0.1,0.6-0.1c0.1,0,0.1,0,0.1,0.1c0,0.1-0.1,0.1-0.1,0.1c0,0,0,0,0,0
			C5.8,16.1,5.6,16,5.4,16"/>
		<path id="Path_650" class="st22" d="M24.9,14.4c0,1.2,0,2.4,0,3.5c0,0.2,0,0.2-0.2,0.2c-1,0-2,0-3,0c-0.2,0-0.3,0-0.3-0.3
			c0-0.5,0-0.5-0.6-0.5c-0.4,0-0.8,0-1.1,0c-0.1,0-0.2-0.1-0.2-0.2c0-0.8,0-1.6,0-2.4c0-0.1,0-0.1,0.1-0.1c0,0,0.1,0,0.1,0
			c0.2,0,0.5,0.1,0.6-0.1s0-0.4,0-0.6c0-1,0-2,0-2.9c0-0.1,0-0.2,0-0.3c0-0.1,0.1-0.2,0.2-0.3c0,0,0,0,0,0c0.1,0,0.3,0.1,0.3,0.2
			c0,0,0,0,0,0c0,0.3,0,0.6,0,0.9c0,0.5,0,1.1,0,1.6c0,0.2,0.1,0.2,0.3,0.2c0.2,0,0.2,0,0.2-0.2c0-0.8,0-1.6,0-2.3
			c0-0.3,0.2-0.5,0.5-0.5c0.2,0,0.4,0.2,0.4,0.4c0,0,0,0,0,0c0,0.8,0,1.5,0,2.3c0,0.2,0,0.3,0.2,0.3s0.3,0,0.3-0.3
			c0-0.7,0-1.4,0-2.2c0-0.3,0.2-0.5,0.4-0.6c0.2,0,0.5,0.3,0.5,0.6c0,0.7,0,1.4,0,2.1c0,0.2,0,0.3,0.2,0.3c0.3,0,0.3-0.1,0.3-0.3
			c0-0.7,0-1.5,0-2.2c0-0.2,0-0.4,0.3-0.4c0.2,0,0.4,0.1,0.4,0.2c0,0.1,0,0.2,0,0.3C24.9,12.2,24.9,13.3,24.9,14.4L24.9,14.4z"/>
		<path id="Path_651" class="st22" d="M12.7,19.5c0-1.2,0-2.3,0-3.5c0-0.2,0.1-0.3,0.3-0.3c1,0,2,0,3,0c0.2,0,0.2,0,0.2,0.2
			c0,0.6,0,0.6,0.6,0.6c0.4,0,0.7,0,1.1,0c0.2,0,0.2,0.1,0.2,0.2c0,0.8,0,1.5,0,2.3c0,0.1,0,0.2-0.2,0.2c-0.6,0-0.6,0-0.6,0.6
			c0,1,0,2,0,3c0,0.1,0,0.1,0,0.2c0,0.2-0.1,0.3-0.3,0.3c-0.2,0-0.3-0.1-0.3-0.3c0,0,0,0,0,0c0-0.4,0-0.7,0-1.1c0-0.4,0-0.9,0-1.3
			c0-0.2,0-0.2-0.2-0.2s-0.3,0-0.3,0.2c0,0.8,0,1.6,0,2.4c0,0.3-0.1,0.4-0.4,0.4s-0.4-0.1-0.4-0.4c0-0.8,0-1.5,0-2.3
			c0-0.2,0-0.3-0.3-0.3c-0.2,0-0.3,0.1-0.3,0.3c0,0.7,0,1.5,0,2.2c0,0.3-0.1,0.5-0.4,0.5S14,23.3,13.9,23c0-0.7,0-1.5,0-2.2
			c0-0.2-0.1-0.3-0.3-0.3s-0.3,0.1-0.3,0.3c0,0.8,0,1.5,0,2.3c0,0.4-0.1,0.4-0.3,0.5c-0.3,0-0.4-0.2-0.4-0.5
			C12.7,21.8,12.7,20.7,12.7,19.5"/>
		<path id="Path_652" class="st22" d="M21.4,23.1c-1.2,0-2.3,0-3.5,0c-0.2,0-0.3-0.1-0.3-0.3c0-1,0-2,0-3c0-0.2,0.1-0.2,0.2-0.2
			c0.6,0,0.6,0,0.6-0.6c0-0.4,0-0.7,0-1.1c0-0.2,0-0.2,0.2-0.2c0.8,0,1.5,0,2.3,0c0.1,0,0.2,0.1,0.2,0.2c0,0.2-0.1,0.5,0.1,0.6
			c0.1,0.1,0.4,0,0.6,0c1,0,2,0,3,0c0.1,0,0.3,0,0.4,0.1c0,0.1,0.2,0.1,0.1,0.3s-0.1,0.3-0.4,0.3c-0.8,0-1.6,0-2.4,0
			c-0.2,0-0.3,0-0.3,0.2c0,0.2,0,0.3,0.3,0.3c0.8,0,1.5,0,2.3,0c0.2,0,0.4,0.1,0.4,0.3c0,0,0,0.1,0,0.1c0,0.2-0.1,0.4-0.3,0.5
			c0,0-0.1,0-0.1,0c-0.8,0-1.6,0-2.3,0c-0.2,0-0.2,0.1-0.2,0.2s0,0.3,0.2,0.3c0.7,0,1.5,0,2.2,0c0.2,0,0.5,0.1,0.6,0.3
			c0.1,0.2-0.2,0.5-0.4,0.5c-0.3,0-0.6,0-0.9,0c-0.5,0-1,0-1.4,0c-0.2,0-0.3,0-0.3,0.2s0.1,0.3,0.3,0.3c0.7,0,1.5,0,2.2,0
			c0.3,0,0.5,0.2,0.4,0.5c0,0.2-0.2,0.2-0.4,0.2C23.7,23.1,22.6,23.1,21.4,23.1L21.4,23.1z"/>
		<path id="Path_653" class="st22" d="M20,12.6c0,0.5,0,1,0,1.5c0,0.2,0,0.2-0.2,0.2s-0.4-0.1-0.5,0s0,0.4,0,0.6c0,0.4,0,0.7,0,1.1
			c0,0.2,0,0.2-0.2,0.2c-0.8,0-1.5,0-2.3,0c-0.1,0-0.2,0-0.2-0.2c0,0,0,0,0,0c0-0.6,0-0.6-0.7-0.6c-1,0-2.1,0-3.1,0
			c-0.2,0-0.4,0-0.4-0.3c0-0.3,0.2-0.3,0.4-0.3c0.5,0,1.1,0,1.6,0c0.3,0,0.5,0,0.8,0c0.2,0,0.2-0.1,0.2-0.3s0-0.3-0.2-0.3
			c-0.8,0-1.5,0-2.3,0c-0.3,0-0.5-0.1-0.5-0.5s0.1-0.4,0.5-0.4c0.8,0,1.5,0,2.3,0c0.2,0,0.2-0.1,0.2-0.2c0-0.2,0-0.3-0.2-0.3
			c-0.8,0-1.5,0-2.3,0c-0.2,0-0.4-0.1-0.5-0.3c-0.1-0.2,0-0.4,0.1-0.5c0.1-0.1,0.2-0.1,0.3-0.1c0.8,0,1.5,0,2.3,0
			c0.2,0,0.3,0,0.3-0.2c0-0.2-0.1-0.3-0.3-0.3c-0.8,0-1.6,0-2.4,0c-0.3,0-0.4-0.1-0.4-0.3s0.1-0.4,0.3-0.4c2.4,0,4.8,0,7.1,0
			c0.2,0,0.2,0.1,0.2,0.2C20,11.6,20,12.1,20,12.6"/>
		<path id="Path_654" class="st22" d="M26.9,14.7c0.5,0,1,0,1.4,0c0.2,0,0.3,0.1,0.3,0.3c0.2,1.4,0.2,2.8,0,4.2
			c-0.1,0.6-0.3,1.2-0.5,1.7c-0.2,0.4-0.4,0.8-0.6,1.2c-0.2,0.4-0.5,0.8-0.8,1.2c-0.3,0.4-0.7,0.8-1,1.1c0,0-0.1,0.1-0.1,0.1
			c-0.1,0-0.1,0.3-0.3,0.2s0-0.3-0.1-0.4c0-0.1,0-0.2,0-0.3c-0.1-0.3,0-0.7,0.3-0.9c0.2-0.3,0.1-0.6-0.1-0.8c0,0,0,0,0,0
			c-0.1-0.1-0.1-0.1,0-0.2c0.4-0.5,0.4-0.6,0-1.2c-0.1-0.1-0.1-0.1,0-0.2c0.5-0.5,0.4-0.7,0.1-1.2c-0.1-0.1-0.1-0.2,0-0.3
			c0.4-0.3,0.2-0.6-0.1-0.9c-0.1-0.1-0.1-0.1-0.1-0.2c0-1.1,0-2.1,0-3.2c0-0.2,0.1-0.2,0.2-0.2C25.9,14.7,26.4,14.7,26.9,14.7"/>
		<path id="Path_655" class="st22" d="M11.2,23.4c0.4,0,0.8,0,1.2,0c0.1,0,0.2,0,0.2,0.1c0.2,0.3,0.6,0.3,0.9,0.1c0,0,0,0,0,0
			c0.1-0.1,0.2-0.1,0.3,0c0.3,0.3,0.7,0.3,1,0c0,0,0,0,0,0c0.1-0.1,0.3-0.1,0.4,0c0.3,0.2,0.7,0.2,1,0c0.1-0.1,0.3-0.2,0.4,0
			c0.2,0.2,0.5,0.2,0.8,0c0.1-0.1,0.2-0.2,0.3-0.2c1.1,0,2.2,0,3.2,0c0.2,0,0.2,0.1,0.2,0.2c0,1,0,1.9,0,2.9c0,0.2,0,0.2-0.2,0.3
			c-1.9,0.4-3.8,0.3-5.6-0.4c-0.4-0.2-0.9-0.4-1.3-0.6c-0.5-0.3-1-0.6-1.5-1c-0.4-0.3-0.7-0.6-1-0.9C11.4,23.7,11.3,23.6,11.2,23.4"
			/>
		<path id="Path_656" class="st22" d="M10.7,19.3c-0.5,0-1,0-1.4,0c-0.2,0-0.2,0-0.3-0.2c-0.2-1-0.3-2-0.2-3
			c0.1-0.9,0.3-1.8,0.6-2.6c0.3-0.7,0.7-1.5,1.1-2.1c0.3-0.5,0.7-0.9,1-1.3c0.2-0.2,0.4-0.4,0.6-0.6c0.1-0.1,0.2-0.1,0.2,0.1
			c0,0.3,0,0.6,0,0.9c0,0.1,0,0.1-0.1,0.2c-0.3,0.3-0.3,0.7-0.1,1c0,0,0,0,0.1,0.1c0.1,0.1,0,0.1,0,0.2c-0.3,0.3-0.3,0.8,0,1.1
			c0.1,0.1,0,0.1,0,0.2c-0.3,0.3-0.3,0.7-0.1,1c0.2,0.2,0.1,0.5,0,0.6c-0.2,0.3-0.1,0.5,0.2,0.7c0.1,0.1,0.1,0.1,0.1,0.2
			c0,1.1,0,2.2,0,3.2c0,0.2-0.1,0.2-0.2,0.2C11.7,19.3,11.2,19.3,10.7,19.3"/>
		<path id="Path_657" class="st22" d="M18.3,10.6c-0.5,0-1.1,0-1.6,0c-0.1,0-0.2,0-0.2-0.2c0-1,0-2,0-2.9c0-0.1,0.1-0.2,0.2-0.2
			C17.3,7.1,17.9,7,18.5,7c0.6,0,1.3,0,1.9,0.1c0.9,0.1,1.8,0.4,2.6,0.8c0.4,0.2,0.8,0.4,1.1,0.6c0.5,0.3,0.9,0.6,1.4,1
			c0.3,0.3,0.6,0.5,0.8,0.8c0,0.1,0.1,0.1,0.1,0.2s-0.1,0-0.2,0c-0.1,0-0.3,0-0.4,0c-0.3,0-0.6,0-0.9-0.2c-0.4-0.3-0.6-0.2-0.9,0.1
			c-0.1,0.1-0.1,0-0.2,0c-0.2-0.1-0.4-0.2-0.6-0.3c-0.2,0-0.4,0.1-0.6,0.2c-0.1,0.1-0.2,0.1-0.3,0c-0.4-0.3-0.6-0.4-1.1,0.1
			c-0.1,0.1-0.1,0-0.1,0c-0.4-0.4-0.6-0.5-1,0c-0.1,0.1-0.1,0-0.2,0C19.4,10.6,18.9,10.6,18.3,10.6"/>
		<path id="Path_658" class="st22" d="M19.3,17c0,0.5,0,0.4-0.4,0.4c-0.6,0-0.5,0.1-0.5-0.5c0-0.4,0-0.4,0.4-0.4
			C19.3,16.6,19.3,16.6,19.3,17"/>
		<path id="Path_659" class="st24" d="M18.8,33.1c-6.9,0-13.1-4.4-15.3-11l-0.9,0.2c2.2,7,8.8,11.8,16.2,11.7
			c7.3,0.1,13.9-4.7,16.1-11.7L34,22.1C31.8,28.7,25.7,33.1,18.8,33.1"/>
		<path id="Path_660" class="st24" d="M18.8,0.9c6.7,0,12.8,4.2,15.1,10.5h0.9C31.7,2.6,22-2.1,13.2,1C8.3,2.7,4.5,6.5,2.8,11.3h0.9
			C6.1,5,12.1,0.9,18.8,0.9"/>
	</g>
</g>
</svg>
