<?xml version="1.0" encoding="UTF-8"?><svg id="Layer_1" xmlns="http://www.w3.org/2000/svg" viewBox="0 0 94 60"><defs><style>.cls-1{fill:#e36fed;}.cls-2{fill:#2ab3e1;}.cls-3{fill:#f6f6f6;}.cls-4{fill:#f9b03d;}.cls-5{fill:#0a87c9;}.cls-6{fill:#eb7a28;}.cls-7{fill:#a6c64c;}.cls-8{fill:#c75ed0;}.cls-9{fill:#5fb352;}</style></defs><g><path class="cls-8" d="m88.54,13.13c.37.64.14,1.46-.5,1.83l-20.05,11.45c-1.33.76-2.4.13-2.4-1.4l.02-4.49,17-9.66c1.93-1.1,4.39-.42,5.49,1.51l.43.76Z"/><path class="cls-1" d="m66.97.58c-.74,0-1.34.6-1.34,1.34v8.95c-.01,1.52-.02,4.02-.02,5.55l-.02,8.59c0,1.53,1.07,2.15,2.4,1.39l3.9-2.23V4.61c-.01-2.22-1.82-4.03-4.04-4.03h-.88Z"/></g><g><path class="cls-5" d="m66.93,59.48c-.74,0-1.34-.6-1.34-1.34v-23.09c0-1.53,1.08-2.15,2.41-1.39l3.89,2.25-.05,19.56c0,2.22-1.81,4.02-4.04,4.02h-.88Z"/><path class="cls-2" d="m88.53,46.98c.37-.64.14-1.46-.5-1.83l-7.76-4.45c-1.32-.76-3.49-2-4.81-2.76l-7.45-4.28c-1.32-.76-2.4-.13-2.4,1.39v4.49s17,9.7,17,9.7c1.93,1.1,4.39.43,5.49-1.5l.43-.76Z"/></g><g><path class="cls-3" d="m25.36,17.74h-.85c-.56,0-1.01.45-1.01,1.01v34.5c0,.56.45,1.01,1.01,1.01h.85c1.85,0,3.36-1.5,3.36-3.36v-29.8c0-1.85-1.5-3.36-3.36-3.36Z"/><path class="cls-3" d="m61.66,41.89c-1.48-2.06-3.47-3.18-6.06-3.14-2.02.03-4.05-.03-6.07.02-.65-.03-1.27-.31-1.72-.78-.45-.47-.7-1.1-.69-1.75,0-.65.26-1.28.72-1.74.46-.46,1.08-.73,1.73-.75,3.49.05,8.69,0,12.48,0,.56,0,1-.45,1-1.01v-.81c0-1.85-1.5-3.36-3.36-3.36h-10.6c-1.05-.03-2.09.24-3,.76-2.25,1.35-3.59,3.3-3.88,5.94-.21,1.46,0,2.96.63,4.3,1.36,2.78,3.52,4.4,6.71,4.42h6.13c.25-.01.5.02.74.08.45.12.86.38,1.16.74.31.36.5.8.55,1.26.06.35.05.7-.03,1.04-.09.34-.24.66-.46.94-.22.28-.5.5-.81.66s-.66.25-1.01.26c-4.4-.02-9.65,0-14.04,0-.86.04-1.72-.13-2.5-.51-1.79-.93-2.88-2.39-2.93-4.41-.04-1.76-.05-3.52-.04-5.28h.02v-5.05h3.66c.15,0,.29-.1.32-.25.45-1.72,1.56-3.4,2.61-4.33.23-.2.08-.59-.23-.59h-6.36v-7.48c0-1.85-1.5-3.36-3.36-3.36h-.94c-.56,0-1.01.45-1.01,1.01v24.73c0,.88.09,1.76.27,2.62.31,1.54,1,2.98,2,4.2,2.07,2.53,4.74,3.91,8.02,3.94,4.6.04,10.05.01,14.64,0,1.32.01,2.61-.39,3.68-1.16,1.94-1.38,3.1-3.22,3.36-5.62.23-2.02-.14-3.9-1.34-5.56Z"/><path class="cls-3" d="m21.2,31.91v18.32c0,2.22-1.8,4.03-4.03,4.03h-.64c-.33,0-.59-.27-.59-.59v-.71c-.5.22-.96.44-1.43.62-1.59.61-3.3.83-4.99.63-2.02-.22-3.93-1.04-5.49-2.33-1.56-1.3-2.71-3.03-3.3-4.97-.32-1.04-.47-2.13-.47-3.22v-14.13c0-.56.45-1.01,1.01-1.01h.89c1.85,0,3.36,1.5,3.36,3.36,0,3.38,0,8.52,0,11.66-.06,1.24.33,2.47,1.08,3.46.73.95,1.77,1.61,2.94,1.86,1.13.28,2.33.18,3.39-.3,1.07-.48,1.94-1.31,2.47-2.34.41-.82.61-1.74.57-2.66v-14.02c0-.56.45-1.01,1.01-1.01h.87c1.85,0,3.35,1.51,3.35,3.36Z"/></g><g><path class="cls-9" d="m61.72.52c.74,0,1.34.6,1.34,1.34v23.09c0,1.53-1.08,2.15-2.4,1.39l-3.89-2.31.04-19.49c0-2.22,1.81-4.02,4.04-4.02h.88Z"/><path class="cls-7" d="m40.24,12.91c-.37.64-.16,1.46.48,1.84l7.73,4.51c1.32.77,3.47,2.03,4.79,2.8l7.42,4.34c1.32.77,2.39.15,2.41-1.37v-4.51s-16.87-9.81-16.87-9.81c-1.92-1.12-4.39-.47-5.51,1.46l-.44.76Z"/></g><g><path class="cls-6" d="m91.14,42.53c-.37.64-1.2.85-1.84.48l-19.93-11.65c-1.32-.77-1.31-2.02.01-2.78l3.96-2.2,16.81,9.87c1.92,1.13,2.56,3.59,1.44,5.51l-.44.76Z"/><path class="cls-4" d="m91.27,17.73c-.36-.64-1.18-.87-1.83-.51l-7.79,4.4c-1.33.75-3.51,1.97-4.83,2.72l-7.49,4.22c-1.33.75-1.34,1.99-.03,2.77l3.9,2.27,16.98-9.62c1.94-1.1,2.62-3.55,1.52-5.49l-.43-.76Z"/></g></svg>