<?xml version="1.0" encoding="utf-8"?>
<!-- Generator: Adobe Illustrator 25.0.1, SVG Export Plug-In . SVG Version: 6.00 Build 0)  -->
<svg version="1.1" id="Layer_1" xmlns="http://www.w3.org/2000/svg" xmlns:xlink="http://www.w3.org/1999/xlink" x="0px" y="0px"
	 viewBox="0 0 60 60" style="enable-background:new 0 0 60 60;" xml:space="preserve">
<style type="text/css">
	.st0{fill:#FFFFFF;fill-opacity:0;}
	.st1{fill:none;stroke:#F6F6F6;stroke-width:2;}
	.st2{fill:none;}
	.st3{fill:#F6F6F6;}
	.st4{opacity:0.8;}
	.st5{fill:none;stroke:#F6F6F6;stroke-width:2;stroke-linecap:round;stroke-linejoin:round;}
	.st6{fill:#F6F6F6;stroke:#F6F6F6;}
	.st7{fill:none;stroke:#F6F6F6;stroke-width:2;stroke-linecap:round;stroke-miterlimit:10;}
	.st8{fill:none;stroke:#F6F6F6;stroke-width:1.8;stroke-linecap:round;stroke-miterlimit:10;}
	.st9{fill:none;stroke:#F6F6F6;stroke-width:2.2;stroke-linecap:round;stroke-miterlimit:10;}
	.st10{fill:none;stroke:#F6F6F6;stroke-width:3;stroke-linecap:round;stroke-miterlimit:10;}
	.st11{fill:none;stroke:#F6F6F6;stroke-width:2.2;stroke-linecap:round;stroke-linejoin:round;}
	.st12{opacity:0.43;}
	.st13{clip-path:url(#SVGID_2_);}
	.st14{opacity:0.41;fill:#949696;enable-background:new    ;}
	.st15{fill:#949696;}
	.st16{opacity:0.65;}
	.st17{fill:#D2AF69;}
	.st18{opacity:0.39;}
	.st19{opacity:0.3;fill:#D2AF69;enable-background:new    ;}
	.st20{opacity:0.66;}
	.st21{clip-path:url(#SVGID_4_);}
	.st22{fill:#FFFFFF;}
	.st23{fill:#231F20;}
	.st24{fill:#D81F29;}
	.st25{fill:#BEBEBE;fill-opacity:0;}
	.st26{fill:#BEBEBE;}
	.st27{opacity:0.3;fill:#FFFFFF;enable-background:new    ;}
</style>
<g id="Group_1406_1_" transform="translate(-13001 -3314)">
	<rect id="Rectangle_962_1_" x="13001" y="3314" class="st2" width="60" height="60"/>
	<path id="Path_510_1_" class="st5" d="M13016.3,3355l-4.6,0c-0.2,0-0.3,0.1-0.4,0.2l-7.5,13.2c-0.2,0.2-0.1,0.5,0.1,0.7
		c0.1,0.1,0.2,0.1,0.3,0.1h48.5"/>
	<path id="Path_511_1_" class="st5" d="M13040.8,3351.7h2.9c0.2,0,0.3,0.1,0.4,0.2l6.3,11c0.2,0.2,0.1,0.5-0.1,0.7c0,0,0,0,0,0
		c-0.1,0.1-0.2,0.1-0.3,0.1h-37.5c-0.3,0-0.5-0.2-0.5-0.5l0,0c0-0.1,0-0.2,0.1-0.3l5.9-10.8c0.2-0.2,0.4-0.4,0.7-0.4h2.9"/>
	<path id="Path_512_1_" class="st5" d="M13025.9,3349.3h-1.8c-0.3,0-0.6,0.2-0.8,0.5l-3.5,7.9c-0.2,0.2-0.1,0.6,0.2,0.7
		c0.1,0.1,0.2,0.1,0.3,0.1h22.2c0.3,0,0.5-0.2,0.5-0.5c0-0.1,0-0.2-0.1-0.3l-3.6-7.9c-0.2-0.3-0.5-0.4-0.8-0.4h-2.1"/>
	<path id="Path_513_1_" class="st5" d="M13021.2,3336.8c-3.3-5.4-1.7-12.5,3.7-15.8c1.1-0.7,2.2-1.1,3.5-1.4
		c0.8-0.2,1.6-0.3,2.4-0.3c5.8-0.1,10.7,4.1,11.6,9.8c0.4,2.6-0.1,5.3-1.5,7.6c-2.9,4.9-5.8,9.8-8.8,14.7c-0.2,0.3-0.5,0.6-0.9,0.6
		c-0.4,0.1-0.9-0.2-1.1-0.6c-1-1.7-2.1-3.3-3.1-5C13026.7,3345.7,13021.7,3337.6,13021.2,3336.8z"/>
	<path id="Path_514_1_" class="st5" d="M13031,3325.2c-3.1,0-5.6,2.5-5.6,5.6l0,0c0,3.1,2.5,5.6,5.6,5.6l0,0c3.1,0,5.6-2.5,5.6-5.6
		C13036.5,3327.7,13034,3325.2,13031,3325.2z"/>
	<path id="Path_509_1_" class="st5" d="M13053,3369.2h5.2c0.3,0,0.5-0.2,0.5-0.5c0,0,0,0,0,0c0-0.1,0-0.2-0.1-0.3l-7.5-13.4
		c-0.1-0.1-0.3-0.2-0.4-0.2l-4.5,0"/>
</g>
</svg>
