<?xml version="1.0" encoding="utf-8"?>
<!-- Generator: Adobe Illustrator 25.0.1, SVG Export Plug-In . SVG Version: 6.00 Build 0)  -->
<svg version="1.1" id="Layer_1" xmlns="http://www.w3.org/2000/svg" xmlns:xlink="http://www.w3.org/1999/xlink" x="0px" y="0px"
	 viewBox="0 0 60 60" style="enable-background:new 0 0 60 60;" xml:space="preserve">
<style type="text/css">
	.st0{fill:none;}
	.st1{fill:none;stroke:#F6F6F6;stroke-width:2;stroke-linecap:round;stroke-miterlimit:10;}
	.st2{fill:none;stroke:#F6F6F6;stroke-width:2;stroke-linecap:round;stroke-linejoin:round;}
	.st3{fill:none;stroke:#000000;stroke-miterlimit:10;}
</style>
<g>
	<line id="Line_237_1_" class="st1" x1="24.9" y1="53.9" x2="24.9" y2="18.2"/>
	<line id="Line_238_1_" class="st1" x1="34.7" y1="53.9" x2="34.9" y2="18.2"/>
	<path id="Path_741_1_" class="st1" d="M26.9,18.1c0,0-8.7-2.9-10.8-6.5c-0.9-1.4-0.4-3.2,0.9-4.1c0.3-0.2,0.6-0.3,0.9-0.4
		C19.2,7,20.5,7.3,21.6,8c3.9,2.5,7.1,6,9.3,10"/>
	<path id="Path_742_1_" class="st1" d="M34.2,18.1c0,0,8.7-2.9,10.8-6.5c0.9-1.4,0.4-3.2-0.9-4.1c-0.3-0.2-0.6-0.3-0.9-0.4
		C41.9,7,40.6,7.3,39.5,8c-3.9,2.5-7.1,6-9.3,10"/>
	<path id="Path_743_1_" class="st1" d="M9.1,29.8v22.9c0,0.7,0.6,1.2,1.2,1.2c0,0,0,0,0,0h39c0.7,0,1.2-0.6,1.2-1.2c0,0,0,0,0,0
		V25.5h1.8c0.7,0,1.2-0.6,1.2-1.2v-4.8c0-0.7-0.6-1.2-1.2-1.2l0,0H7.6c-0.7,0-1.2,0.6-1.2,1.2c0,0,0,0,0,0v4.8
		c0,0.7,0.6,1.2,1.2,1.2h38.2"/>
	<rect id="Rectangle_890_1_" class="st0" width="60" height="60"/>
</g>
</svg>
